<?xml version="1.0" encoding="UTF-8"?>
<svg id="Layer_1" data-name="Layer 1" xmlns="http://www.w3.org/2000/svg" viewBox="0 0 375 284">
  <defs>
    <style>
      .cls-1 {
        fill: #b89049;
      }

      .cls-2 {
        fill: #fff;
      }
    </style>
  </defs>
  <path class="cls-2" d="m375,284H0C0,189.33,0,94.67,0,0c125,0,250,0,375,0,0,94.67,0,189.33,0,284ZM127.56,32.11c.46-2-.37-3.09-1.69-4.05-1.46-1.05-3-2.1-4.15-3.45-2.46-2.89-5.24-5.4-8.21-7.7-1.26-.98-2.82-1.57-4.01-2.61-2.06-1.8-4.13-3.54-6.71-4.55-.29-.11-.5-.43-.77-.62-.56-.39-1.12-.82-1.73-1.13-1.67-.84-3.71-.99-4.92-2.7-.12-.17-.43-.24-.67-.29-1.45-.31-2.9-.63-4.36-.9-2.1-.39-4.2-.74-6.3-1.13-1.43-.26-2.86-.55-4.29-.84-.92-.19-1.84-.59-2.75-.55-3.72.18-7.44.47-11.16.76-.61.05-1.32.11-1.78.44-2.08,1.51-4.53,1.76-6.92,2.18-.64.11-1.13.11-1.47.83-.17.36-.84.54-1.32.68-1.91.55-3.83,1.04-5.74,1.58-.22.06-.39.3-.59.45-.97.73-1.89,1.55-2.92,2.18-2.01,1.23-4.29,1.98-5.95,3.84-.77.86-2.06,1.23-3.07,1.91-.41.28-.86.72-.97,1.17-.2.83-.46,1.39-1.41,1.43-.95.03-1.29.72-1.81,1.44-.93,1.32-1.98,2.79-3.35,3.49-2.02,1.04-3.59,2.3-4.66,4.29-.18.34-.68.54-1.07.72-.85.38-1.79.6-2.57,1.08-1.53.94-3.01,1.89-4.89,1.99-.46.02-1.01.41-1.33.79-1.93,2.28-3.81,4.6-5.68,6.94-.21.26-.28.65-.36,1-.22.96-.37,1.94-.63,2.89-.32,1.2-1.47,2.14-1.06,3.59.05.16-.31.45-.49.67-.34.41-.78.77-1.01,1.23-.76,1.52-1.32,3.15-2.19,4.59-.76,1.25-.76,1.97.57,2.75.65.38.98.55,1.58,0,.33-.31.89-.36,1.34-.56.52-.22,1.04-.44,1.53-.72.57-.32,1.1-.7,1.64-1.05.55-.36,1.12-.69,1.64-1.07,1.47-1.08,2.88-2.25,4.4-3.26,1.17-.78,2.43-.2,2.59,1.19.13,1.06.31,2.28-.08,3.21-1.03,2.48-.83,5.07-1.06,7.62-.21,2.3-.13,2.31,2.12,2.14.41-.03.89.05,1.22-.13.34-.19.62-.59.8-.97.22-.46.19-1.35.46-1.43,1.73-.54,2.23-2,2.94-3.4.51-1.02,1.4-1.85,1.96-2.85.71-1.27,1.18-2.67,1.9-3.93.74-1.29.94-3.05,2.79-3.49.19-.04.37-.46.41-.72.14-.94.28-1.88.32-2.83.11-2.9.13-5.81.28-8.7.04-.85.39-1.69.6-2.53.18,0,.35.01.53.02.25,1.29.5,2.59.77,3.97.28-.22.49-.35.65-.52,1.13-1.16,2.12-2.51,3.41-3.45,2.23-1.64,4.62-3.07,7-4.5,1.22-.74,2.74-.99,3.56-2.36.07-.12.27-.19.43-.23,3.16-.76,6-2.36,9.02-3.46,4.51-1.65,9.22-2.41,14.03-2.51,5.17-.1,10.08,1.24,15,2.6.29.08.72.34.74.55.1.93.73.88,1.36.85.87-.05,1.65.02,2.18.86.14.22.44.38.7.48,1.98.75,3.55,2.01,5.01,3.54,1.15,1.21,2.57,2.56,4.09,2.91,1.57.36,2.3,1.24,3.14,2.28.29.36.61.69.84,1.09,1.35,2.38,4.23,3.37,5.34,5.96.06.13.25.24.4.28.95.24,1.05.94.96,1.74-.13,1.09.32,1.86,1.09,2.62,1.41,1.41,2.77,2.89,4,4.45.73.93,1.12,2.13,1.78,3.13.61.92,1.52,1.65,2.05,2.61,1.1,2,2.1,4.06,3,6.15.42.98.72,1.91,1.92,2.18.26.06.56.39.67.67.5,1.32,1.03,2.64,1.36,4,.32,1.32.11,2.57,1.39,3.8,1.35,1.3,1.95,3.43,2.7,5.27,1.46,3.53,2.61,7.2,4.24,10.64,1.3,2.74,1.86,5.69,3,8.46.98,2.37,1.81,4.81,2.63,7.24.67,1.99,1.28,4.01,1.81,6.05.41,1.55.31,3.32,1.02,4.69,2.34,4.51,3.46,9.41,4.96,14.19.58,1.85.62,3.9,1.41,5.63,1.36,2.99,1.27,6.31,2.6,9.34,1.16,2.64,1.4,5.69,1.99,8.57.48,2.36.88,4.74,1.32,7.1.59.06,1.08.1,1.44.14.29,1.27.54,2.43.81,3.58.22.99.53,1.98.66,2.98.19,1.47.11,2.93.75,4.39.93,2.14,1.43,4.46,2.26,6.65.73,1.92,2.14,3.61,1.92,5.85,0,.1.13.21.18.32.48,1.2-.03,3.36-.75,4.22-1.84,2.21-4.64,3.37-6.19,5.92-.88,1.45-2.13,2.68-3.22,4-.47.58-.86,1.29-1.46,1.69-1.89,1.31-2.96,3.27-4.24,5.07-.78,1.1-1.41,2.47-2.46,3.19-1.51,1.03-2.48,2.13-2.75,3.96-.14.95-.48,1.96-1.01,2.75-1.45,2.15-2.46,4.46-3.14,6.95-.32,1.17-.52,2.43-1.97,2.91-.28.09-.45.72-.55,1.14-.13.47-.11.98-.19,1.47-.36,2.31-.76,4.61-1.08,6.92-.66,4.91-.85,9.84.07,14.72.7,3.7.99,7.6,3.63,10.67.1.12.17.3.19.46.18,1.63.76,2.92,1.92,4.25,1.48,1.7,2.3,3.98,3.41,6.01.22.4.39.9.73,1.14.4.28.98.43,1.46.39.19-.02.36-.68.49-1.07.18-.54.33-1.1.46-1.66.37-1.53,1.57-2.79,1.35-4.53-.05-.41.38-1.14.75-1.28,1.17-.44,1.31-1.36,1.42-2.37.06-.52.02-1.33.32-1.51,1.53-.88,1.58-2.72,2.84-3.91,2.01-1.91,3.29-4.57,4.95-6.87,1.1-1.53,2.31-2.98,3.49-4.45.78-.98,1.44-2.16,2.43-2.86,1.1-.79,1.76-1.69,2.24-2.91.26-.66.92-1.15,1.41-1.72,1.09-1.27,2.1-2.61,3.28-3.78,1.57-1.55,2.94-3.07,3.09-5.47.07-1.02.82-2.02,1.38-2.96.15-.24.76-.17,1.1-.35.25-.12.51-.38.6-.63.13-.34.02-.77.16-1.1.97-2.31.93-4.96,2.38-7.11.12-.18.1-.48.1-.73.04-2.12.23-4.26.07-6.37-.11-1.48-.63-2.94-1.11-4.36-.55-1.64-1.39-3.19-1.86-4.84-.31-1.08-.94-1.1-1.75-1.09-.98,0-.73.82-.89,1.36-.24.81-.34,1.7-.74,2.42-.61,1.08-1.47,2-2.14,3.05-.54.85-.96,1.75-2.1,1.96-.2.04-.34.38-.5.59-.25.32-.45.68-.74.95-.64.58-1.39,1.05-1.97,1.68-1.74,1.88-3.18,4.16-5.19,5.66-2.58,1.92-3.89,4.79-6.07,6.97-1.33,1.34-2.41,2.92-3.57,4.43-.42.54-.77,1.14-1.07,1.76-.38.78-.66,1.6-1,2.39-.5,1.16-1.08,2.28-1.5,3.46-.72,2.02-1.5,4.05-1.97,6.14-.48,2.13-.62,4.34-.93,6.51-.05.36-.19.71-.29,1.06-.12-.01-.24-.03-.36-.04-.14-1.47-.13-2.96-.44-4.39-.52-2.38-.33-4.67.31-6.99.4-1.47.5-3.05,1.04-4.46,1.2-3.12,2.83-6.03,4.96-8.64,1.67-2.06,3.22-4.22,4.91-6.26.75-.91,1.79-1.57,2.59-2.45,1.1-1.22,2.06-2.57,3.13-3.81,1.98-2.28,4.65-4.02,5.52-7.16.06-.21.38-.32.51-.53.98-1.48,2.22-2.86,2.85-4.48.58-1.5.47-3.26.71-4.9.28-1.9-.69-3.47-1.23-5.15-.1-.3.04-.67.07-1,.34.07.79.03,1.01.23.9.85,1.72,1.8,2.61,2.67,1.89,1.86,3.78,3.72,5.71,5.53,1.12,1.04,2.33,1.98,3.49,2.98.21.18.31.52.54.66,2.63,1.59,5.27,3.14,7.9,4.72.82.5,1.67,1,2.37,1.65,1.5,1.39,3.21,1.86,5.34,1.65-.49-3.37.23-6.82-1.86-9.65-.76-.23-1.59-.33-2.25-.72-.95-.56-1.78-1.33-2.66-2-.98-.76-1.95-1.54-2.95-2.26-.54-.39-1.11-.82-1.72-.98-1.02-.26-1.98-.42-2.44-1.58-.16-.4-.69-.66-1.07-.96-1.21-.96-2.43-1.9-3.64-2.86-.29-.23-.57-.48-.86-.71-.84-.66-1.75-1.25-2.51-1.99-1.09-1.06-2.09-2.22-3.13-3.33-1.35-1.45-2.85-2.79-4.02-4.37-1.15-1.56-2.72-2.71-3.47-4.71-.75-1.98-2.43-3.59-3.56-5.45-.94-1.55-1.66-3.23-2.51-4.85-.4-.77-.85-1.52-1.3-2.31.1-.18.33-.58.58-1.05.79.85,1.53,1.63,2.26,2.41.53.57,1.23,1.06,1.56,1.72,1.53,3.09,3.43,5.9,5.81,8.38.8.83,1.56,1.68,2.31,2.56.51.6.86,1.38,1.45,1.87,1.09.9,1.82,1.97,2.51,3.21.67,1.2,2.03,2.03,3.13,2.98,1.27,1.1,2.55,2.2,3.91,3.2.9.66,2.03,1.03,2.91,1.71,1.13.87,2.06,1.98,3.17,2.87,2.05,1.66,3.62,4,6.59,4.57.24-.67.81-1.48.72-2.19-.31-2.37-.65-4.78-1.39-7.04-.44-1.36-.25-2.32.36-3.53.37.99.68,1.85,1.02,2.68.27.67.63,1.3.87,1.98.36,1.02.63,2.06.96,3.09.59,1.83,1.21,3.64,1.8,5.47.12.38.1.82.25,1.19.8,1.92,1.74,3.8,2.42,5.76.79,2.25,1.37,4.57,2.06,6.93,1.24.13,1.17.14,1.4,1.49.25,1.47.48,2.96.98,4.35.86,2.41,1.89,4.75,2.9,7.1.62,1.43,1.37,2.81,2.03,4.22.66,1.42,1.19,2.92,1.95,4.28,1.71,3.09,3.49,6.14,5.31,9.16.36.6,1.02,1.02,1.55,1.52,1.03.96,2.42,1.6,2.47,3.36.02.62.37,1.48.85,1.8,2.47,1.67,4.81,3.47,6.88,5.63.63.66,1.29,1.26,2.34,1.18.24-.02.51.43.78.64.86.69,1.62,1.61,2.6,2.02,2.49,1.03,5.05,1.88,7.62,2.69,1.17.37,2.19.77,2.82,1.94.18.33.74.46,1.15.65,2.05.93,4.12,1.85,6.16,2.79.21.1.31.4.51.54.62.43,1.22,1.03,1.92,1.21,3.33.88,6.67,1.68,10.03,2.41,1.22.26,2.5.23,3.75.34.04-.12.09-.25.13-.37-.24-.25-.43-.56-.71-.74-2.91-1.83-5.29-4.2-7.3-6.98-.68-.94-1.24-2.1-2.15-2.71-2.1-1.41-3.13-3.61-4.53-5.54-.57-.78-.77-1.84-1.34-2.62-.95-1.28-2.14-2.37-3.08-3.65-1.18-1.59-2.73-3-2.84-5.22-.02-.4-.55-.79-.88-1.16-.21-.25-.55-.41-.7-.69-.64-1.17-1.27-2.34-1.82-3.55-.99-2.17-1.92-4.36-2.88-6.54-.61-1.39-.42-2.97-1.8-4.26-1.07-1.01-1.25-2.97-1.84-4.5-.14-.37-.29-.75-.51-1.06-1.03-1.45-2.32-2.76-3.08-4.33-1.32-2.72-3.2-5-5.08-7.27-1.86-2.25-4.06-4.22-5.98-6.42-.57-.66-1.02-1.68-1.02-2.54,0-2.23.44-4.47.41-6.7-.04-3.23-.25-6.47-.55-9.69-.13-1.39-.37-2.9-1.04-4.08-1.96-3.46-3.85-6.99-6.47-10.04-.22-.26-.18-.74-.27-1.12.35-.02.75-.17,1.03-.04,1,.45,2.04.87,2.91,1.51,2.71,2,4.56,4.63,5.49,7.91.15.52.61,1.18,1.07,1.34.85.29,1.08.85,1.15,1.58.16,1.65.39,3.31.42,4.97.07,3.82.19,7.65.01,11.46-.11,2.31.62,4.1,2.29,5.51,1.69,1.43,3.36,2.81,4.1,5.02.19.56.7,1,1.07,1.49,1.36,1.81,2.73,3.61,4.09,5.42.46.61.5,1.65,1.63,1.62.11,0,.26.29.35.47.94,1.98,1.96,3.92,2.75,5.95.43,1.09,1.69,2.13.44,3.58.89.59,1.64,1.16,2.47,1.62,1.57.87,3.59.93,4.7,2.65.15.23.57.35.89.4,1.47.21,2.92.41,4.08,1.49.2.18.56.18.79.34.61.4,1.34.74,1.74,1.3,1.07,1.47,2.1,2.99,2.95,4.59.61,1.14.89,2.46,1.39,3.67.12.28.53.46.83.64.35.21.9.27,1.08.57.63,1.07,1.03,2.27,1.7,3.31,1.12,1.73,2.42,3.34,3.54,5.07.73,1.12,1.74,1.92,2.61,2.87,1.41,1.53,1.96,3.88,4.35,4.49.18.05.37.24.45.41,1.08,2.1,3.44,2.62,5.04,4.08.42.38,1.14.41,1.67.7,1.04.56,1.99,1.34,3.08,1.75,3.55,1.36,6.96,3,10.24,4.91,1.22.71,2.48,1.39,3.8,1.84,1.01.34,1.71.71,1.53,1.87q2.16.32,3.89,1.69c.07.05.13.11.2.15,2.13,1.11,4.24,2.26,6.4,3.32.74.36,1.34.66,1.51,1.6.18,1.02.78,1.64,2.24,1.18-.23-1.22-.2-2.58-.73-3.68-2.03-4.23-4.23-8.37-6.4-12.53-.22-.42-.67-.72-1.02-1.08-.81-.83-1.64-1.64-2.41-2.51-2.15-2.41-4.25-4.85-6.42-7.25-1.39-1.54-2.78-3.1-4.3-4.5-1.58-1.46-3.34-2.73-5-4.1-1.16-.96-2.19-2.12-3.44-2.92-2.72-1.75-5.51-3.39-8.35-4.93-.91-.49-2.09-.5-3.14-.73-.09.12-.17.25-.26.37.89,2.56,1.74,5.14,2.7,7.68.28.75.83,1.4,1.28,2.08.33.49.73.95,1.07,1.43.65.93,1.25,1.9,1.96,2.78.41.51,1.1.79,1.47,1.31,1.54,2.19,3.49,3.86,5.92,4.98.89.41,1.79.84,2.62,1.37,1.41.9,2.75,1.9,4.13,2.84,1.08.74,2.19,1.46,3.28,2.18-.38.32-.65.43-.84.35-3.2-1.32-6.45-2.51-9.54-4.04-1.82-.9-3.49-2.22-5.02-3.58-2.13-1.9-4.06-4.02-6.09-6.04-.51-.51-1.21-.89-1.54-1.49-1.32-2.42-2.6-4.87-3.76-7.37-.77-1.67-1.53-3.41-1.85-5.2-.32-1.78-.23-1.92-2.07-2.3-1.57-.33-3.11-.84-4.66-1.28l.1-.55c2.03.21,4.05.46,6.08.64,4.94.42,9.89.83,14.84,1.19,1.31.1,2.63.01,4.09.01,0-.97.04-1.67-.02-2.36-.02-.24-.22-.61-.41-.67-1.33-.4-2.31-1.32-3.43-2.07-2.41-1.61-5.17-2.34-8.14-2.3-2.49.03-4.99-.04-7.46-.31-3.09-.34-6.13-1.08-9.22-1.36-3.28-.3-6.27-1.48-9.34-2.47-.25-.08-.47-.28-.87-.53.6-.14,1-.22,1.39-.32,2.06-.49,3.98.42,5.97.6,2.51.23,5.01.63,7.53.71,1.75.05,3.56-.57,5.03.94.11.11.3.21.44.19,1.95-.16,3.9-.35,5.85-.53-1.06-1.71-1.97-3.21-2.9-4.7-.45-.72-1.17-1.39-1.31-2.16-.33-1.85-.52-3.76-.53-5.64-.01-1.59.41-3.17.44-4.76.07-3.37.05-6.75,0-10.12-.01-.95-.16-1.91-.38-2.83-.4-1.72-.92-3.42-1.32-5.14-.22-.95,0-2.12-.48-2.88-1.07-1.7-2.47-3.2-3.7-4.8-.29-.37-.44-.85-.66-1.28.12-.09.23-.19.35-.28.44.26.94.46,1.31.8,1.03.96,1.98,2.02,3.02,2.96.53.48,1.22.79,1.79,1.23.44.33.83.73,1.21,1.13.23.25.49.54.57.85.25,1,.41,2.03.63,3.04.4,1.85,1.01,3.69,1.19,5.56.2,2.06,0,4.16.02,6.24.05,4.06-.12,8.11.31,12.2.42,3.97,2.59,6.82,4.71,9.83.16.23.43.4.68.53,1.89.96,3.78,1.9,5.92,2.97.13-.81.37-1.36.26-1.82-.53-2.25-1.01-4.54-1.79-6.71-.86-2.39-1.9-4.7-1.95-7.29,0-.37-.03-.84-.25-1.07-1.01-1.11-.75-2.5-.93-3.78-.1-.7.02-1.43-.13-2.11-.43-2.02-.04-3.86,1.2-5.35.6-.34,1.2-.68,1.99-1.13.13.6.33,1.21.37,1.83.19,2.85.33,5.7.49,8.56.03.49-.08,1.29.17,1.43,1.06.59.78,1.56.84,2.39.2,2.77,1.27,5.29,2.06,7.89.26.87.27,1.82.56,2.68.96,2.91,1.97,5.81,3.01,8.7.45,1.23.86,2.52,1.56,3.61,1.37,2.12,2.57,4.26,3.43,6.67.65,1.82,2.08,3.35,3.13,5.03.31.5.64,1.06.7,1.62.1.88-.1,1.83,1.31,1.69.2-.02.48.4.68.65,1.84,2.31,3.61,4.68,5.52,6.94,1.1,1.3,2.35,2.49,3.65,3.58,1.33,1.11,2.83,2.01,4.24,3.03.24.18.39.48.6.7.36.37.69.85,1.13,1.06,1.38.66,2.84,1.14,4.2,1.83,1.43.72,2.77,1.6,4.16,2.4,2.27,1.31,5.12,1.49,6.98,3.62.15.17.55.14.83.15,2.66.08,5.25.02,7.87,1.11,2.02.84,4.46.79,6.72.86,3.86.12,7.73.08,11.59,0,1.17-.02,2.32-.37,3.64-.6-.59-.46-1.04-.72-1.39-1.08-1.54-1.58-3.07-3.16-4.56-4.78-.89-.96-1.57-2.15-2.55-2.98-1.42-1.2-3.06-2.14-4.55-3.27-.96-.73-2.18-1.22-2.49-2.62-.06-.28-.54-.45-.81-.69-.3-.26-.72-.48-.85-.81-.38-.92-1.02-1.13-1.95-1.18-.78-.04-1.82-.14-2.27-.64-3.19-3.53-7.25-5.94-10.99-8.75-2.01-1.51-4.48-2.61-6-4.49-1.37-1.69-3.15-2.37-4.72-3.52-1.28-.94-2.81-1.76-3.66-3.03-.83-1.22-1.73-2.21-2.92-2.95-2.95-1.84-4.59-4.61-5.66-7.81-.09-.28-.4-.49-.63-.72-.23-.23-.56-.39-.71-.65-.86-1.56-1.68-3.13-2.49-4.71-.31-.61-.63-1.22-.81-1.88-.15-.58-.03-1.22-.17-1.81-.58-2.53-1.22-5.05-1.8-7.58-.27-1.17-.44-2.37-.69-3.7,1.43,1.34,3.65,1.81,3.57,4.34,1.54-.15,2.67.09,2.64,1.88,0,.21.32.49.55.62,1.26.68,2.51,1.38,3.81,1.97,2.03.92,4.06,1.85,6.15,2.61,2.84,1.04,5.73,1.91,8.59,2.88.28.09.49.39.73.6.67.58,1.34,1.16,2,1.74.3.26.75.48.87.82.54,1.45,1.86,1.98,3.04,2.61,2.59,1.37,5.24,2.64,7.87,3.92.33.16.71.21,1.06.31.94.27,1.88.55,2.82.82,0,.18-.02.37-.03.55-1.19.19-2.45.73-3.55.5-2.05-.43-4.09-1.12-5.98-2.02-5.4-2.58-10.41-5.96-16.2-7.77-1.98-.62-3.97-1.56-5.59-2.82-1.28-.99-2.66-1.02-4.02-1.65.05.83.11,1.44.13,2.05.05,1.57.06,3.13.13,4.7.07,1.74.94,2.58,2.57,2.88.72.13,1.61.47,2.02,1.01,1.66,2.19,4.76,2.67,6.05,5.25.05.09.21.13.31.2.7.5,1.62.86,2.05,1.54.79,1.25,1.97,1.4,3.12,1.36,2.48-.09,5.17.95,7.34-1.18.13-.13.39-.18.59-.18,1.98,0,3.97-.23,5.9.55,1.41.57,2.87,1.02,4.35,1.35,1.08.24,2.27.04,3.32.34,2.51.71,5.04.71,7.51.14,3.02-.7,5.97-1.67,8.95-2.55.22-.06.48-.25.56-.45.47-1.2,1.5-1.67,2.57-2.18.44-.21.71-.76,1.05-1.16-.07-.11-.15-.23-.22-.34-1.44.2-2.7,0-3.46-1.39-.11-.2-.48-.29-.75-.36-1.46-.39-2.94-.7-4.38-1.15-1.92-.6-3.79-1.39-5.72-1.96-1.87-.55-4.09-.13-5.38-2.15-.1-.15-.47-.11-.69-.21-2.41-1.05-5.21-1.17-7.3-3.04-.19-.17-.55-.11-.81-.22-1.99-.86-3.97-1.74-5.94-2.63-.17-.08-.26-.32-.41-.46-.72-.71-1.39-1.49-2.19-2.09-1.85-1.38-3.79-2.63-5.64-4-1.91-1.41-2.55-3.73-3.84-5.59-1.16-1.68-2.21-3.46-3.53-5-.7-.82-1.15-1.5-1.09-2.58.02-.4-.29-.9-.59-1.23-.67-.73-1.49-1.31-2.12-2.07-1.72-2.07-3.53-4.1-4.99-6.34-.58-.89-.91-1.75-1.85-2.52-1.27-1.05-2.08-2.74-2.87-4.27-.83-1.6-1.84-2.94-3.31-3.99-.81-.58-1.53-1.3-2.2-2.04-1.78-1.95-3.5-3.95-5.27-5.92-1.52-1.69-3.06-3.37-4.6-5.04-1.03-1.12-1.69-2.73-3.58-2.75-.16,0-.42-.27-.47-.45-.4-1.44-1.33-2.33-2.56-3.19-1.73-1.22-3.18-2.85-4.83-4.21-2.25-1.85-4.6-3.57-6.85-5.42-.87-.72-1.49-1.76-2.39-2.43-1.36-1.02-2.95-1.73-4.29-2.77-3.09-2.4-6.44-4.35-9.84-6.24-.75-.42-1.38-1.05-2.15-1.43-1.63-.81-3.31-1.54-4.98-2.28-1.58-.7-3.34-1.14-4.71-2.12-1.45-1.04-2.86-1.56-4.59-1.43-.23.02-.48-.3-.72-.46-.47-.33-.89-.77-1.41-.98-.68-.27-1.44-.32-2.15-.55-1.71-.56-3.37-1.43-5.12-1.69-3.66-.54-7.02-2.31-10.75-2.47-.4-.02-.79-.22-1.19-.29-1.04-.18-2.07-.4-3.12-.49-1.09-.09-2.19,0-3.28-.08-4.48-.31-8.96-.56-13.43-1.01-2.32-.23-4.71.07-6.95-.87-.29-.12-.65-.05-.98-.06-3.67-.11-7.31,0-10.75-1.85-2.65-1.43-4.77-3.15-5.89-6.01-.96-2.46-1.98-4.9-3.01-7.33-.76-1.78-1.6-3.51-2.38-5.28-.31-.71-.5-1.48-.84-2.18-.79-1.63-1.65-3.22-2.44-4.84-.48-.99-.91-2-1.34-3.01-1.12-2.7-3.32-4.86-3.89-7.84-.05-.25-.35-.44-.51-.67-.2-.27-.42-.54-.55-.85-.71-1.6-1.32-3.26-2.12-4.82-.9-1.77-2.02-3.43-2.95-5.18-1-1.89-1.55-4.17-2.95-5.65-1.5-1.58-2.12-3.49-3.17-5.23-.98-1.63-1.8-3.41-3.05-4.82-.99-1.12-1.54-2.24-1.83-3.65-.11-.54-.72-1.21-1.23-1.37-1.16-.36-1.7-1.17-2.27-2.11-1.33-2.2-2.48-4.61-4.23-6.43-1.72-1.78-2.94-3.86-4.35-5.81-.92-1.28-1.55-2.58-3.68-1.99Z"/>
  <path class="cls-1" d="m127.56,32.11c2.13-.59,2.76.71,3.68,1.99,1.41,1.95,2.63,4.02,4.35,5.81,1.75,1.82,2.9,4.23,4.23,6.43.57.95,1.12,1.75,2.27,2.11.52.16,1.12.83,1.23,1.37.3,1.41.84,2.53,1.83,3.65,1.24,1.4,2.06,3.18,3.05,4.82,1.05,1.74,1.67,3.64,3.17,5.23,1.4,1.48,1.95,3.76,2.95,5.65.93,1.75,2.05,3.41,2.95,5.18.8,1.56,1.41,3.22,2.12,4.82.14.3.36.57.55.85.17.23.47.42.51.67.57,2.98,2.76,5.14,3.89,7.84.42,1.01.85,2.03,1.34,3.01.79,1.62,1.65,3.22,2.44,4.84.34.7.53,1.47.84,2.18.78,1.77,1.62,3.51,2.38,5.28,1.04,2.43,2.05,4.87,3.01,7.33,1.11,2.86,3.23,4.58,5.89,6.01,3.44,1.86,7.08,1.74,10.75,1.85.33,0,.7-.06.98.06,2.24.94,4.63.63,6.95.87,4.46.45,8.95.7,13.43,1.01,1.09.07,2.19-.01,3.28.08,1.05.09,2.08.31,3.12.49.4.07.79.28,1.19.29,3.73.16,7.09,1.93,10.75,2.47,1.75.26,3.41,1.13,5.12,1.69.7.23,1.47.27,2.15.55.52.21.94.65,1.41.98.24.17.49.48.72.46,1.73-.12,3.14.39,4.59,1.43,1.37.99,3.13,1.42,4.71,2.12,1.67.74,3.34,1.47,4.98,2.28.76.38,1.4,1.02,2.15,1.43,3.4,1.89,6.75,3.84,9.84,6.24,1.34,1.04,2.93,1.76,4.29,2.77.9.67,1.51,1.72,2.39,2.43,2.25,1.85,4.6,3.57,6.85,5.42,1.65,1.36,3.09,2.99,4.83,4.21,1.22.86,2.15,1.75,2.56,3.19.05.19.31.45.47.45,1.89.03,2.55,1.63,3.58,2.75,1.54,1.68,3.08,3.35,4.6,5.04,1.76,1.96,3.49,3.97,5.27,5.92.67.74,1.4,1.46,2.2,2.04,1.47,1.05,2.48,2.39,3.31,3.99.79,1.53,1.6,3.23,2.87,4.27.94.77,1.27,1.63,1.85,2.52,1.47,2.24,3.27,4.27,4.99,6.34.63.75,1.46,1.34,2.12,2.07.3.33.61.83.59,1.23-.06,1.09.39,1.77,1.09,2.58,1.32,1.54,2.37,3.32,3.53,5,1.28,1.86,1.93,4.18,3.84,5.59,1.85,1.37,3.79,2.62,5.64,4,.8.6,1.47,1.38,2.19,2.09.15.14.24.39.41.46,1.97.89,3.96,1.76,5.94,2.63.26.11.62.06.81.22,2.08,1.87,4.88,1.99,7.3,3.04.22.1.59.05.69.21,1.29,2.03,3.51,1.61,5.38,2.15,1.93.57,3.8,1.35,5.72,1.96,1.44.45,2.92.76,4.38,1.15.27.07.64.16.75.36.77,1.39,2.02,1.58,3.46,1.39.07.11.15.23.22.34-.35.4-.61.95-1.05,1.16-1.07.51-2.1.98-2.57,2.18-.08.2-.34.38-.56.45-2.98.87-5.93,1.85-8.95,2.55-2.47.57-5,.58-7.51-.14-1.05-.3-2.24-.1-3.32-.34-1.48-.34-2.94-.79-4.35-1.35-1.93-.78-3.92-.54-5.9-.55-.2,0-.46.05-.59.18-2.17,2.13-4.86,1.09-7.34,1.18-1.15.04-2.33-.12-3.12-1.36-.43-.68-1.35-1.04-2.05-1.54-.1-.07-.26-.1-.31-.2-1.29-2.58-4.39-3.06-6.05-5.25-.41-.55-1.3-.88-2.02-1.01-1.63-.3-2.5-1.14-2.57-2.88-.06-1.56-.08-3.13-.13-4.7-.02-.61-.07-1.22-.13-2.05,1.37.62,2.74.65,4.02,1.65,1.63,1.26,3.61,2.2,5.59,2.82,5.79,1.81,10.8,5.19,16.2,7.77,1.89.9,3.93,1.59,5.98,2.02,1.1.23,2.36-.31,3.55-.5,0-.18.02-.37.03-.55-.94-.27-1.88-.55-2.82-.82-.35-.1-.74-.15-1.06-.31-2.63-1.29-5.28-2.55-7.87-3.92-1.18-.63-2.5-1.16-3.04-2.61-.12-.33-.57-.55-.87-.82-.67-.58-1.33-1.16-2-1.74-.24-.21-.45-.51-.73-.6-2.86-.97-5.75-1.85-8.59-2.88-2.09-.76-4.12-1.69-6.15-2.61-1.3-.59-2.55-1.29-3.81-1.97-.24-.13-.56-.41-.55-.62.04-1.79-1.1-2.03-2.64-1.88.08-2.53-2.14-3-3.57-4.34.24,1.33.42,2.53.69,3.7.58,2.53,1.23,5.05,1.8,7.58.13.58.01,1.23.17,1.81.17.65.5,1.27.81,1.88.81,1.58,1.64,3.15,2.49,4.71.15.27.48.43.71.65.23.23.53.44.63.72,1.07,3.2,2.7,5.97,5.66,7.81,1.19.74,2.1,1.73,2.92,2.95.85,1.26,2.38,2.08,3.66,3.03,1.58,1.16,3.36,1.83,4.72,3.52,1.52,1.89,4,2.98,6,4.49,3.74,2.81,7.79,5.23,10.99,8.75.45.5,1.49.6,2.27.64.93.04,1.57.26,1.95,1.18.14.33.55.55.85.81.27.24.75.41.81.69.32,1.4,1.54,1.89,2.49,2.62,1.49,1.13,3.13,2.06,4.55,3.27.98.83,1.67,2.02,2.55,2.98,1.49,1.62,3.02,3.2,4.56,4.78.35.36.79.62,1.39,1.08-1.32.23-2.48.57-3.64.6-3.86.07-7.73.12-11.59,0-2.26-.07-4.7-.03-6.72-.86-2.62-1.09-5.21-1.03-7.87-1.11-.28,0-.68.02-.83-.15-1.86-2.13-4.71-2.31-6.98-3.62-1.39-.8-2.73-1.68-4.16-2.4-1.36-.69-2.82-1.17-4.2-1.83-.45-.21-.77-.69-1.13-1.06-.22-.22-.36-.53-.6-.7-1.41-1.02-2.91-1.92-4.24-3.03-1.31-1.08-2.55-2.28-3.65-3.58-1.91-2.25-3.68-4.62-5.52-6.94-.2-.25-.47-.67-.68-.65-1.41.14-1.21-.8-1.31-1.69-.07-.56-.39-1.12-.7-1.62-1.05-1.68-2.48-3.21-3.13-5.03-.86-2.41-2.06-4.55-3.43-6.67-.7-1.09-1.12-2.38-1.56-3.61-1.04-2.89-2.05-5.79-3.01-8.7-.28-.86-.29-1.81-.56-2.68-.79-2.61-1.86-5.13-2.06-7.89-.06-.83.21-1.81-.84-2.39-.24-.14-.14-.93-.17-1.43-.16-2.85-.3-5.71-.49-8.56-.04-.62-.25-1.22-.37-1.83-.8.45-1.39.79-1.99,1.13-1.24,1.49-1.62,3.33-1.2,5.35.14.68.03,1.42.13,2.11.18,1.29-.08,2.68.93,3.78.22.24.24.71.25,1.07.05,2.6,1.09,4.9,1.95,7.29.78,2.17,1.26,4.45,1.79,6.71.11.46-.13,1.01-.26,1.82-2.14-1.07-4.03-2.01-5.92-2.97-.25-.13-.52-.3-.68-.53-2.12-3-4.29-5.86-4.71-9.83-.43-4.08-.26-8.13-.31-12.2-.02-2.08.18-4.18-.02-6.24-.18-1.87-.79-3.71-1.19-5.56-.22-1.01-.38-2.04-.63-3.04-.08-.31-.33-.6-.57-.85-.38-.4-.77-.8-1.21-1.13-.58-.44-1.26-.75-1.79-1.23-1.04-.95-1.99-2-3.02-2.96-.37-.34-.87-.54-1.31-.8-.12.09-.23.19-.35.28.22.43.37.9.66,1.28,1.23,1.61,2.62,3.1,3.7,4.8.48.76.26,1.93.48,2.88.4,1.72.92,3.42,1.32,5.14.21.92.37,1.88.38,2.83.05,3.37.07,6.75,0,10.12-.03,1.59-.46,3.18-.44,4.76.02,1.88.2,3.79.53,5.64.14.77.86,1.44,1.31,2.16.92,1.49,1.84,2.98,2.9,4.7-1.95.18-3.89.36-5.85.53-.14.01-.33-.09-.44-.19-1.47-1.5-3.28-.88-5.03-.94-2.51-.08-5.02-.48-7.53-.71-1.99-.18-3.91-1.1-5.97-.6-.39.09-.79.18-1.39.32.41.25.62.45.87.53,3.07.99,6.06,2.17,9.34,2.47,3.09.28,6.13,1.02,9.22,1.36,2.47.27,4.97.34,7.46.31,2.97-.04,5.72.7,8.14,2.3,1.12.75,2.1,1.67,3.43,2.07.19.06.39.43.41.67.05.69.02,1.4.02,2.36-1.46,0-2.78.08-4.09-.01-4.95-.36-9.9-.77-14.84-1.19-2.03-.17-4.06-.42-6.08-.64l-.1.55c1.55.43,3.09.94,4.66,1.28,1.84.39,1.75.52,2.07,2.3.32,1.79,1.08,3.53,1.85,5.2,1.15,2.5,2.43,4.95,3.76,7.37.33.6,1.03.98,1.54,1.49,2.03,2.02,3.96,4.14,6.09,6.04,1.53,1.36,3.2,2.68,5.02,3.58,3.09,1.53,6.35,2.73,9.54,4.04.19.08.46-.03.84-.35-1.09-.73-2.2-1.44-3.28-2.18-1.38-.94-2.73-1.94-4.13-2.84-.83-.53-1.73-.96-2.62-1.37-2.43-1.13-4.38-2.79-5.92-4.98-.37-.52-1.06-.81-1.47-1.31-.71-.88-1.3-1.86-1.96-2.78-.34-.49-.74-.94-1.07-1.43-.45-.68-1-1.33-1.28-2.08-.95-2.54-1.8-5.12-2.7-7.68.09-.12.17-.25.26-.37,1.06.23,2.23.24,3.14.73,2.84,1.53,5.63,3.18,8.35,4.93,1.25.81,2.28,1.96,3.44,2.92,1.66,1.38,3.42,2.65,5,4.1,1.52,1.4,2.91,2.96,4.3,4.5,2.16,2.39,4.27,4.84,6.42,7.25.77.86,1.6,1.67,2.41,2.51.35.36.8.66,1.02,1.08,2.17,4.16,4.37,8.3,6.4,12.53.53,1.1.51,2.46.73,3.68-1.46.46-2.07-.16-2.24-1.18-.16-.94-.77-1.23-1.51-1.6-2.16-1.06-4.27-2.21-6.4-3.32-.07-.04-.13-.1-.2-.15q-1.73-1.37-3.89-1.69c.17-1.16-.52-1.53-1.53-1.87-1.32-.45-2.59-1.13-3.8-1.84-3.28-1.92-6.69-3.55-10.24-4.91-1.09-.42-2.04-1.19-3.08-1.75-.53-.29-1.25-.32-1.67-.7-1.6-1.46-3.96-1.98-5.04-4.08-.09-.17-.28-.37-.45-.41-2.39-.61-2.93-2.96-4.35-4.49-.87-.95-1.89-1.75-2.61-2.87-1.12-1.73-2.43-3.33-3.54-5.07-.67-1.04-1.08-2.24-1.7-3.31-.17-.3-.72-.36-1.08-.57-.3-.18-.71-.36-.83-.64-.5-1.21-.78-2.53-1.39-3.67-.86-1.6-1.88-3.12-2.95-4.59-.41-.56-1.14-.9-1.74-1.3-.24-.16-.6-.15-.79-.34-1.16-1.08-2.61-1.28-4.08-1.49-.32-.05-.74-.17-.89-.4-1.11-1.72-3.13-1.78-4.7-2.65-.82-.46-1.58-1.03-2.47-1.62,1.25-1.45-.01-2.49-.44-3.58-.79-2.03-1.82-3.97-2.75-5.95-.09-.18-.24-.48-.35-.47-1.13.04-1.16-1-1.63-1.62-1.36-1.81-2.73-3.61-4.09-5.42-.37-.49-.88-.94-1.07-1.49-.74-2.21-2.41-3.59-4.1-5.02-1.67-1.41-2.39-3.2-2.29-5.51.17-3.81.06-7.64-.01-11.46-.03-1.66-.26-3.31-.42-4.97-.07-.73-.3-1.29-1.15-1.58-.46-.16-.92-.82-1.07-1.34-.93-3.28-2.78-5.91-5.49-7.91-.87-.64-1.91-1.06-2.91-1.51-.28-.13-.69.02-1.03.04.08.38.04.86.27,1.12,2.62,3.05,4.51,6.57,6.47,10.04.67,1.18.91,2.69,1.04,4.08.29,3.22.51,6.46.55,9.69.03,2.23-.41,4.47-.41,6.7,0,.86.44,1.88,1.02,2.54,1.92,2.2,4.12,4.16,5.98,6.42,1.88,2.27,3.76,4.56,5.08,7.27.76,1.57,2.05,2.89,3.08,4.33.23.32.37.7.51,1.06.59,1.53.77,3.49,1.84,4.5,1.37,1.29,1.18,2.87,1.8,4.26.96,2.18,1.89,4.37,2.88,6.54.55,1.21,1.18,2.38,1.82,3.55.15.27.49.44.7.69.32.37.86.76.88,1.16.12,2.22,1.66,3.62,2.84,5.22.95,1.28,2.14,2.37,3.08,3.65.58.78.77,1.84,1.34,2.62,1.4,1.93,2.43,4.13,4.53,5.54.91.61,1.47,1.77,2.15,2.71,2.01,2.78,4.39,5.15,7.3,6.98.28.18.48.49.71.74-.04.12-.09.25-.13.37-1.25-.1-2.54-.08-3.75-.34-3.36-.73-6.71-1.54-10.03-2.41-.7-.18-1.29-.78-1.92-1.21-.2-.14-.3-.44-.51-.54-2.05-.95-4.11-1.86-6.16-2.79-.4-.18-.97-.32-1.15-.65-.63-1.16-1.64-1.57-2.82-1.94-2.57-.81-5.13-1.66-7.62-2.69-.98-.4-1.74-1.33-2.6-2.02-.27-.22-.54-.66-.78-.64-1.05.08-1.71-.52-2.34-1.18-2.07-2.16-4.41-3.96-6.88-5.63-.48-.32-.83-1.18-.85-1.8-.05-1.76-1.44-2.4-2.47-3.36-.53-.5-1.19-.92-1.55-1.52-1.82-3.02-3.61-6.07-5.31-9.16-.76-1.37-1.28-2.86-1.95-4.28-.66-1.42-1.41-2.79-2.03-4.22-1.02-2.35-2.04-4.69-2.9-7.1-.5-1.39-.73-2.89-.98-4.35-.23-1.35-.17-1.36-1.4-1.49-.69-2.36-1.27-4.69-2.06-6.93-.69-1.96-1.63-3.83-2.42-5.76-.15-.37-.13-.8-.25-1.19-.59-1.83-1.21-3.64-1.8-5.47-.33-1.03-.6-2.07-.96-3.09-.24-.68-.6-1.31-.87-1.98-.34-.84-.64-1.69-1.02-2.68-.61,1.21-.8,2.17-.36,3.53.74,2.26,1.08,4.67,1.39,7.04.09.72-.48,1.52-.72,2.19-2.97-.58-4.55-2.91-6.59-4.57-1.11-.9-2.04-2.01-3.17-2.87-.89-.68-2.01-1.05-2.91-1.71-1.36-.99-2.63-2.1-3.91-3.2-1.1-.95-2.45-1.78-3.13-2.98-.7-1.24-1.42-2.31-2.51-3.21-.59-.49-.94-1.27-1.45-1.87-.74-.87-1.51-1.73-2.31-2.56-2.39-2.48-4.29-5.3-5.81-8.38-.33-.67-1.03-1.16-1.56-1.72-.73-.78-1.47-1.56-2.26-2.41-.26.46-.48.86-.58,1.05.45.79.9,1.54,1.3,2.31.84,1.61,1.56,3.3,2.51,4.85,1.13,1.86,2.81,3.47,3.56,5.45.75,2,2.33,3.15,3.47,4.71,1.17,1.58,2.67,2.92,4.02,4.37,1.04,1.11,2.03,2.28,3.13,3.33.77.74,1.67,1.33,2.51,1.99.29.23.57.48.86.71,1.21.95,2.43,1.9,3.64,2.86.38.3.91.56,1.07.96.46,1.17,1.42,1.32,2.44,1.58.62.16,1.19.59,1.72.98,1.01.72,1.97,1.5,2.95,2.26.88.68,1.71,1.45,2.66,2,.66.39,1.49.49,2.25.72,2.1,2.83,1.37,6.29,1.86,9.65-2.13.21-3.85-.26-5.34-1.65-.7-.65-1.55-1.15-2.37-1.65-2.62-1.59-5.27-3.14-7.9-4.72-.23-.14-.33-.48-.54-.66-1.16-1-2.37-1.94-3.49-2.98-1.94-1.81-3.82-3.67-5.71-5.53-.89-.87-1.7-1.82-2.61-2.67-.22-.2-.66-.16-1.01-.23-.03.34-.16.71-.07,1,.54,1.69,1.51,3.26,1.23,5.15-.24,1.64-.13,3.4-.71,4.9-.62,1.62-1.86,3-2.85,4.48-.13.2-.45.32-.51.53-.87,3.14-3.54,4.88-5.52,7.16-1.08,1.24-2.03,2.59-3.13,3.81-.79.88-1.83,1.54-2.59,2.45-1.69,2.04-3.24,4.2-4.91,6.26-2.13,2.61-3.75,5.52-4.96,8.64-.54,1.41-.64,2.99-1.04,4.46-.64,2.32-.83,4.61-.31,6.99.31,1.43.3,2.93.44,4.39.12.01.24.03.36.04.1-.35.24-.7.29-1.06.31-2.17.45-4.38.93-6.51.47-2.09,1.25-4.11,1.97-6.14.42-1.18,1-2.31,1.5-3.46.34-.79.62-1.62,1-2.39.3-.61.65-1.22,1.07-1.76,1.16-1.5,2.24-3.09,3.57-4.43,2.18-2.18,3.48-5.05,6.07-6.97,2.01-1.5,3.45-3.77,5.19-5.66.58-.63,1.34-1.1,1.97-1.68.29-.27.49-.63.74-.95.16-.21.31-.55.5-.59,1.14-.21,1.56-1.11,2.1-1.96.67-1.04,1.54-1.97,2.14-3.05.4-.72.5-1.61.74-2.42.16-.54-.09-1.35.89-1.36.81,0,1.44.02,1.75,1.09.47,1.66,1.31,3.21,1.86,4.84.48,1.42.99,2.89,1.11,4.36.16,2.11-.02,4.24-.07,6.37,0,.25.02.55-.1.73-1.45,2.15-1.41,4.8-2.38,7.11-.14.33-.03.76-.16,1.1-.1.26-.35.51-.6.63-.35.17-.96.1-1.1.35-.56.94-1.31,1.94-1.38,2.96-.16,2.4-1.53,3.93-3.09,5.47-1.19,1.17-2.19,2.51-3.28,3.78-.48.57-1.15,1.06-1.41,1.72-.48,1.22-1.14,2.13-2.24,2.91-.99.7-1.65,1.88-2.43,2.86-1.18,1.47-2.39,2.92-3.49,4.45-1.66,2.3-2.94,4.96-4.95,6.87-1.25,1.19-1.31,3.03-2.84,3.91-.3.17-.26.98-.32,1.51-.11,1.01-.25,1.93-1.42,2.37-.37.14-.8.88-.75,1.28.22,1.74-.98,3-1.35,4.53-.13.56-.28,1.11-.46,1.66-.13.39-.3,1.05-.49,1.07-.48.04-1.06-.11-1.46-.39-.34-.23-.51-.74-.73-1.14-1.11-2.03-1.92-4.31-3.41-6.01-1.16-1.33-1.74-2.62-1.92-4.25-.02-.16-.09-.34-.19-.46-2.64-3.07-2.93-6.96-3.63-10.67-.92-4.88-.74-9.81-.07-14.72.31-2.31.72-4.62,1.08-6.92.08-.49.06-1,.19-1.47.11-.41.27-1.04.55-1.14,1.45-.48,1.65-1.74,1.97-2.91.68-2.49,1.69-4.8,3.14-6.95.53-.79.87-1.8,1.01-2.75.27-1.83,1.24-2.94,2.75-3.96,1.06-.72,1.68-2.09,2.46-3.19,1.28-1.8,2.34-3.76,4.24-5.07.59-.41.98-1.12,1.46-1.69,1.09-1.32,2.33-2.55,3.22-4,1.55-2.55,4.35-3.71,6.19-5.92.71-.86,1.23-3.02.75-4.22-.05-.11-.19-.22-.18-.32.22-2.24-1.19-3.92-1.92-5.85-.83-2.19-1.33-4.51-2.26-6.65-.64-1.46-.56-2.92-.75-4.39-.13-1.01-.44-1.99-.66-2.98-.26-1.16-.52-2.31-.81-3.58-.37-.04-.85-.08-1.44-.14-.43-2.36-.83-4.74-1.32-7.1-.59-2.88-.84-5.93-1.99-8.57-1.33-3.03-1.24-6.35-2.6-9.34-.79-1.73-.83-3.79-1.41-5.63-1.5-4.78-2.62-9.68-4.96-14.19-.71-1.37-.62-3.14-1.02-4.69-.53-2.03-1.14-4.05-1.81-6.05-.82-2.43-1.65-4.87-2.63-7.24-1.15-2.77-1.7-5.72-3-8.46-1.63-3.44-2.79-7.11-4.24-10.64-.76-1.84-1.36-3.98-2.7-5.27-1.28-1.23-1.08-2.48-1.39-3.8-.33-1.37-.86-2.68-1.36-4-.1-.28-.4-.61-.67-.67-1.2-.27-1.49-1.2-1.92-2.18-.9-2.09-1.9-4.15-3-6.15-.53-.96-1.44-1.69-2.05-2.61-.66-1-1.05-2.2-1.78-3.13-1.23-1.57-2.59-3.04-4-4.45-.77-.77-1.22-1.53-1.09-2.62.1-.8,0-1.5-.96-1.74-.15-.04-.34-.15-.4-.28-1.11-2.59-3.99-3.58-5.34-5.96-.22-.39-.55-.73-.84-1.09-.84-1.04-1.57-1.92-3.14-2.28-1.52-.35-2.93-1.7-4.09-2.91-1.47-1.54-3.03-2.79-5.01-3.54-.26-.1-.56-.26-.7-.48-.53-.84-1.31-.91-2.18-.86-.63.04-1.26.09-1.36-.85-.02-.21-.45-.47-.74-.55-4.91-1.36-9.83-2.7-15-2.6-4.81.1-9.52.85-14.03,2.51-3.02,1.11-5.86,2.7-9.02,3.46-.16.04-.36.11-.43.23-.81,1.37-2.34,1.62-3.56,2.36-2.37,1.43-4.76,2.86-7,4.5-1.29.94-2.28,2.29-3.41,3.45-.17.17-.38.3-.65.52-.27-1.39-.52-2.68-.77-3.97-.18,0-.35-.01-.53-.02-.21.84-.56,1.68-.6,2.53-.15,2.9-.17,5.8-.28,8.7-.04.95-.18,1.89-.32,2.83-.04.26-.22.68-.41.72-1.84.44-2.05,2.2-2.79,3.49-.72,1.26-1.19,2.66-1.9,3.93-.56,1-1.45,1.83-1.96,2.85-.7,1.4-1.2,2.86-2.94,3.4-.27.08-.24.97-.46,1.43-.18.37-.46.78-.8.97-.33.18-.81.1-1.22.13-2.25.17-2.33.16-2.12-2.14.23-2.55.04-5.14,1.06-7.62.38-.93.2-2.15.08-3.21-.16-1.39-1.42-1.97-2.59-1.19-1.52,1.01-2.93,2.18-4.4,3.26-.53.39-1.09.72-1.64,1.07-.55.35-1.08.73-1.64,1.05-.49.28-1.02.49-1.53.72-.45.19-1.01.25-1.34.56-.6.56-.93.38-1.58,0-1.34-.78-1.33-1.51-.57-2.75.88-1.44,1.44-3.08,2.19-4.59.23-.46.67-.82,1.01-1.23.18-.22.53-.5.49-.67-.41-1.44.74-2.39,1.06-3.59.26-.95.41-1.93.63-2.89.08-.34.15-.74.36-1,1.87-2.33,3.75-4.65,5.68-6.94.32-.38.87-.77,1.33-.79,1.89-.09,3.37-1.04,4.89-1.99.78-.48,1.72-.7,2.57-1.08.39-.18.89-.38,1.07-.72,1.07-1.99,2.64-3.25,4.66-4.29,1.36-.71,2.42-2.18,3.35-3.49.51-.72.86-1.41,1.81-1.44.95-.03,1.21-.6,1.41-1.43.11-.45.56-.89.97-1.17,1-.67,2.3-1.05,3.07-1.91,1.66-1.86,3.94-2.61,5.95-3.84,1.03-.63,1.95-1.44,2.92-2.18.2-.15.37-.39.59-.45,1.91-.54,3.83-1.03,5.74-1.58.48-.14,1.15-.32,1.32-.68.34-.72.83-.72,1.47-.83,2.4-.41,4.84-.67,6.92-2.18.46-.33,1.17-.4,1.78-.44,3.72-.29,7.44-.58,11.16-.76.9-.04,1.83.36,2.75.55,1.43.29,2.86.58,4.29.84,2.1.39,4.2.73,6.3,1.13,1.46.27,2.91.59,4.36.9.24.05.55.12.67.29,1.21,1.71,3.25,1.85,4.92,2.7.61.31,1.16.73,1.73,1.13.27.19.47.51.77.62,2.59,1.01,4.65,2.75,6.71,4.55,1.19,1.04,2.76,1.64,4.01,2.61,2.97,2.3,5.75,4.81,8.21,7.7,1.15,1.35,2.69,2.4,4.15,3.45,1.33.96,2.16,2.05,1.69,4.05Z"/>
</svg>