<?xml version="1.0" encoding="UTF-8"?>
<svg id="Layer_1" data-name="Layer 1" xmlns="http://www.w3.org/2000/svg" viewBox="0 0 384 384">
  <defs>
    <style>
      .cls-1 {
        fill: #fff;
      }

      .cls-2 {
        fill: #57405c;
      }

      .cls-3 {
        fill: #ffc938;
      }

      .cls-4 {
        fill: #d37144;
      }

      .cls-5 {
        fill: #f8ded9;
      }

      .cls-6 {
        fill: #945330;
      }

      .cls-7 {
        fill: #f6b8b1;
      }

      .cls-8 {
        fill: #ffdb40;
      }

      .cls-9 {
        fill: #ee8d5e;
      }

      .cls-10 {
        fill: #b36947;
      }

      .cls-11 {
        fill: #df7f50;
      }
    </style>
  </defs>
  <path class="cls-1" d="m174,384H0C0,256,0,128,0,0c69.5,0,139,0,208.5,0-.76.49-1.46,1.19-2.3,1.42-2.49.68-5.04,1.18-7.56,1.75-3.23.24-6.45.49-9.68.73-.27.19-.55.38-.82.56,0,0,.03-.06.03-.06-2,.78-4.22,1.23-5.96,2.41-4.04,2.74-8.94,4.8-9.94,10.48-3.09-.8-5.79.77-8.64,1.42-8.97,2.04-18.14,3.42-26.85,6.25-15.24,4.94-30.29,10.55-43.44,20.17-8.03,5.87-16.78,10.78-23.84,17.91-6.08,6.14-12.25,12.22-17.9,18.75-9.82,11.34-18.02,23.81-24.5,37.37-5.72,10.57-9.65,21.84-12.76,33.4-4.08,15.16-6.76,30.53-5.94,46.33-.05,4.61-.06,9.22-.16,13.83-.03,1.55-.57,3.14-.34,4.63.41,2.6,1.32,5.12,1.88,7.69,1.55,7.04,3.04,14.1,4.55,21.16,1.01,4.24,1.53,8.68,3.11,12.69,6.69,16.94,13.51,33.85,25.05,48.31,3.11,3.9,5.42,8.47,8.75,12.14,5.38,5.92,11.11,11.55,17.04,16.92,6.74,6.09,13.57,12.16,20.91,17.48,5.31,3.85,11.37,6.75,17.34,9.55,8.68,4.06,17.37,8.28,26.43,11.26,9.44,3.1,19.33,4.86,29.04,7.1,3.96.91,7.98,1.57,11.97,2.34Z"/>
  <path class="cls-1" d="m229.5,0h154.5v384h-177.75c1.26-.25,2.52-.53,3.79-.74,4.7-.79,9.4-1.56,14.1-2.34.98-.07,1.99-.03,2.95-.23,19.76-4.1,38.58-10.73,56.07-20.89,14.83-8.61,28.44-18.8,40.27-31.28.7-.95,1.41-1.9,2.11-2.85.79-.58,1.76-1.02,2.33-1.77,5.64-7.38,11.37-14.69,16.77-22.24,13.56-18.98,22.01-40.17,26.65-62.95.83-4.09,1.32-8.27,2.45-12.28.67-2.37,3.5-4.33,1.17-7.01.64-1.76.76-3.56.68-5.34-.05-1.2-.55-2.39-.56-3.59-.06-6.54.42-13.12-.13-19.61-.84-9.89-1.85-19.83-3.74-29.57-3.38-17.44-9.78-33.89-18.61-49.33-3.22-5.63-6.79-11.06-10.32-16.5-7.01-10.8-15.55-20.29-25.05-28.93-1.3-1.72-2.6-3.45-3.9-5.17,0,0,0-.33,0-.33,2.26-1.65,4.66-3.14,6.7-5.02.93-.86,1.87-2.72,1.53-3.68-.35-.98-2.22-1.93-3.48-2-4.23-.25-8.48-.11-12.72-.11-.24-.25-.48-.51-.72-.76-1.39-1.97-2.78-3.95-4.17-5.92,2.01-1.36,4.11-2.6,6.01-4.11,2.59-2.06,2.6-5.77,0-6.05-5.14-.55-10.36-.23-15.56-.27-.18-.11-.37-.15-.58-.1-1.59-1.75-3.17-3.49-4.76-5.24,1.99-1.35,4.19-2.5,5.9-4.14,1.01-.97,1.95-2.92,1.64-4.08-.28-1.02-2.33-2.14-3.63-2.19-5.7-.2-11.42-.03-17.13.01-2.36-1.54-4.73-3.08-7.09-4.61.69-.71,1.54-1.33,2.02-2.16.76-1.3,1.86-2.81,1.7-4.09-.11-.81-2.23-1.91-3.47-1.94-5.88-.16-11.77,0-17.65.05-6.11-1.53-12.21-3.07-18.32-4.6Z"/>
  <path class="cls-4" d="m224.13,380.91c-4.7.78-9.4,1.55-14.1,2.34-1.27.21-2.52.49-3.79.74h-32.25c-3.99-.77-8.01-1.43-11.97-2.34-9.72-2.24-19.6-4-29.04-7.1-9.07-2.98-17.76-7.2-26.43-11.26-5.97-2.8-12.04-5.7-17.34-9.55-7.34-5.32-14.18-11.39-20.91-17.48-5.93-5.37-11.67-11-17.04-16.92-3.33-3.67-5.64-8.25-8.75-12.14-11.54-14.47-18.36-31.37-25.05-48.31-1.59-4.01-2.1-8.45-3.11-12.69,3.18-2.33,6.36-4.66,9.54-7,.29-.24.59-.49.88-.73.73-.53,1.46-1.06,2.19-1.6.51.14,1.16.56,1.52.38,10.85-5.19,22.12-7.45,34.25-6.35,18.34,1.66,32.94,9.99,44.39,23.97,6.76,8.25,12.7,17.17,19.25,25.61,8.9,11.48,19.74,20.98,31.32,29.65,12.53,9.38,26.21,16.67,40.92,22.07,14.45,5.3,29.37,8.26,44.71,9,6.48.31,12.99.08,19.48.09-8.13,9.01-16.09,18.18-24.46,26.97-4.35,4.57-9.42,8.46-14.16,12.65Z"/>
  <path class="cls-9" d="m313.28,61.04s0,.33,0,.33c-4.63,1.29-9.28,2.55-13.89,3.89-.75.22-1.37.84-2.05,1.28.65.61,1.19,1.51,1.96,1.78,1.74.6,3.61,1.29,5.39,1.21,4.22-.18,8.43-.79,12.65-1.22,9.95,16.93,17.77,34.81,23.6,53.55.64,2.05.34,4.39.92,6.47,1.44,5.22,3.5,10.29,4.65,15.57,2.05,9.35,4.23,18.66,4.24,28.41,0,6.47,2.33,12.93,2.42,19.41.2,13.31-.34,26.63-.72,39.95-.08,2.81-.73,5.61-1.19,8.41-.41,2.47-1.06,4.91-1.35,7.4-.4,3.51-.31,7.09-.86,10.57-2.43,15.42-7.71,30.03-13.31,44.5-1.9,4.91-4.77,9.45-7.19,14.16-.05-.54-.27-1.13-.12-1.61,1.26-4.1,2.61-8.18,3.9-12.28,5.95-18.93,10.37-38.22,13.32-57.85.79-5.25,1.85-10.48,2.25-15.76.39-5.01.17-10.07.05-15.11-.1-4.46-.22-8.95-.72-13.38-.48-4.21,1.55-8.27-.5-12.75-1.63-3.57-1.1-8.09-1.74-12.16-1.63-10.44-3.77-20.72-7.16-30.82-1.96-5.84-3.91-11.6-6.78-17-2.87-5.37-4.86-11.09-8.12-16.38-9.19-14.86-19.99-28.33-32.58-40.31-11.78-11.21-24.93-20.66-39.38-28.19-6.22-3.24-10.59-2.54-15.58,2.27-1.7,1.64-3.47,3.22-5.21,4.83-5.54-8.35-10.73-8.73-18.04-1.82-8.42,7.96-18.39,12.98-29.96,14.62-1.19-.3-2.4-.55-3.57-.9-8.99-2.69-16.74-10.76-15.02-20.08,2.75-2.27,5.5-4.55,8.25-6.82,6.81,2.51,13.5,1.81,20.13-.74,1.27-.49,2.79-.7,3.76-1.54,1.89-1.63,4.81-3.53,4.95-5.48.58-8.14,1.3-16.43-2.05-24.29,2.52-.57,5.07-1.07,7.56-1.75.83-.23,1.53-.93,2.3-1.42,7,0,14,0,21,0,6.11,1.53,12.21,3.07,18.32,4.6,5.8,2.71,11.6,5.43,17.4,8.14,2.36,1.54,4.73,3.08,7.09,4.61,4.07,3.4,8.14,6.81,12.21,10.21-2.33,1.32-4.68,2.59-6.97,3.97-1.18.71-2.24,1.61-3.35,2.43l.6,1.33c1.9-.15,3.81-.18,5.69-.48,3.28-.52,6.54-1.2,9.81-1.81.21-.04.4,0,.58.1,2.91,3.39,5.81,6.79,8.72,10.18-3.57,1.35-7.16,2.64-10.68,4.1-.89.37-1.53,1.31-2.29,1.99.61.52,1.25,1.54,1.82,1.5,5.39-.37,10.77-.92,16.15-1.41.24.25.48.51.72.76,2.65,3.6,5.31,7.21,7.96,10.81ZM221.48,12.22c-.6-.78-1.34-2.58-2.62-3.15-1.51-.66-4.07-.97-5.12-.13-1.5,1.2-3.01,3.75-2.75,5.45.4,2.59,2.81,1.24,4.55.76.62-.17,1.53,0,2.09.36,3.04,1.95,3.48.03,3.86-3.29Z"/>
  <path class="cls-8" d="m171.85,35.23c-2.75,2.27-5.5,4.55-8.25,6.82-.62,0-1.27-.11-1.87,0-17.58,3.63-33.94,10.26-49.21,19.7-14.33,8.85-26.64,20.02-37.19,33-5.21,6.4-9.27,13.73-13.85,20.64-4.12.22-8.27.22-12.36.7-7.36.87-14.69,2.03-22.03,3.07,6.48-13.56,14.69-26.03,24.5-37.37,5.65-6.53,11.82-12.61,17.9-18.75,7.06-7.13,15.82-12.04,23.84-17.91,13.15-9.62,28.19-15.23,43.44-20.17,8.71-2.82,17.89-4.21,26.85-6.25,2.85-.65,5.55-2.22,8.64-1.42-.14,5.98-.28,11.95-.41,17.93Z"/>
  <path class="cls-4" d="m27.09,119.17c7.34-1.04,14.67-2.2,22.03-3.07,4.09-.48,8.24-.48,12.36-.7.75.06,1.49.12,2.24.18-.73.45-1.42.99-2.21,1.33-7.45,3.18-10.82,9.28-10.51,19.11.18,5.64,5.46,12.08,11.6,14.21,1.63.57,3.22,1.26,4.82,1.89-7.98,4.22-15.97,8.43-23.95,12.65-4.97,3.67-10.5,6.8-14.79,11.14-7.18,7.26-13.56,15.29-20.29,23-.81-15.8,1.86-31.17,5.94-46.33,3.11-11.56,7.04-22.83,12.76-33.4Z"/>
  <path class="cls-8" d="m8.39,198.9c6.72-7.71,13.11-15.74,20.29-23,4.29-4.34,9.82-7.47,14.79-11.14-.28,4.33-.73,8.66-.82,13-.15,7.43-.49,14.89.03,22.28.56,7.88,2.04,15.7,3.12,23.55-1.12.77-2.26,1.52-3.37,2.31-5.17,3.65-10.33,7.31-15.5,10.97-.73.53-1.46,1.06-2.19,1.6-.29.24-.59.49-.88.73-3.18,2.33-6.36,4.66-9.54,7-1.51-7.05-3-14.11-4.55-21.16-.57-2.58-1.47-5.1-1.88-7.69-.24-1.49.31-3.08.34-4.63.1-4.61.11-9.22.16-13.83Z"/>
  <path class="cls-6" d="m171.85,35.23c.14-5.98.28-11.95.41-17.93,1-5.67,5.9-7.74,9.94-10.48,1.73-1.17,3.96-1.63,5.96-2.41-.97,2.49-2.51,4.92-2.81,7.5-.98,8.38,1.31,15.96,6.63,22.58-6.63,2.55-13.32,3.25-20.13.74Z"/>
  <path class="cls-10" d="m191.98,34.49c-5.32-6.62-7.61-14.2-6.63-22.58.3-2.57,1.84-5,2.81-7.5,0,0-.03.06-.03.06.27-.19.55-.38.82-.56,3.23-.24,6.45-.49,9.68-.73,3.35,7.86,2.63,16.15,2.05,24.29-.14,1.95-3.06,3.85-4.95,5.48-.97.84-2.49,1.05-3.76,1.54Z"/>
  <path class="cls-6" d="m188.96,3.91c-.27.19-.55.38-.82.56.27-.19.55-.38.82-.56Z"/>
  <path class="cls-5" d="m230.19,50.23c1.74-1.61,3.5-3.18,5.21-4.83,4.99-4.82,9.36-5.52,15.58-2.27,14.46,7.53,27.6,16.98,39.38,28.19,12.6,11.99,23.39,25.45,32.58,40.31,3.27,5.28,5.26,11,8.12,16.38,2.88,5.39,4.82,11.16,6.78,17,3.39,10.1,5.53,20.37,7.16,30.82.63,4.07.1,8.59,1.74,12.16,2.05,4.48.02,8.54.5,12.75.51,4.43.62,8.91.72,13.38.12,5.04.34,10.1-.05,15.11-.41,5.28-1.46,10.51-2.25,15.76-2.96,19.62-7.37,38.91-13.32,57.85-1.29,4.1-2.64,8.17-3.9,12.28-.15.48.07,1.07.12,1.61-.97,2.05-2.02,4.07-2.85,6.18-.32.82-.12,1.85-.16,2.78-.7.95-1.41,1.9-2.11,2.85-16.02.71-31.76-.49-46.77-6.77.33-.67.63-1.36,1.01-2,11.12-18.47,19.12-38.25,24.03-59.18,2.62-11.18,5.31-22.39,5.07-34.14-.16-8.21,2.15-16.49,1.87-24.68-.5-14.14-2.04-28.25-3.37-42.36-1.38-14.74-5.45-28.89-10.8-42.6-2.78-7.13-6.35-14.1-10.53-20.51-5.05-7.75-10.56-15.36-16.94-22.02-5.15-5.37-11.62-9.64-17.99-13.62-4.6-2.88-9.99-4.49-15.03-6.66l.04.03c-.56-.21-1.11-.42-1.67-.63-.62-.29-1.25-.58-1.87-.87-.1-.76-.2-1.52-.3-2.28Z"/>
  <path class="cls-8" d="m325.53,325.66c.04-.93-.16-1.96.16-2.78.83-2.11,1.88-4.12,2.85-6.18,2.43-4.71,5.29-9.25,7.19-14.16,5.59-14.47,10.87-29.08,13.31-44.5.55-3.48.46-7.06.86-10.57.28-2.49.94-4.93,1.35-7.4.46-2.79,1.11-5.6,1.19-8.41.38-13.31.92-26.64.72-39.95-.1-6.48-2.42-12.94-2.42-19.41,0-9.75-2.19-19.06-4.24-28.41-1.16-5.27-3.21-10.35-4.65-15.57-.58-2.08-.28-4.42-.92-6.47-5.83-18.74-13.65-36.62-23.6-53.55-.05-.59-.1-1.18-.15-1.77,9.5,8.64,18.05,18.13,25.05,28.93,3.53,5.44,7.1,10.88,10.32,16.5,8.83,15.44,15.22,31.88,18.61,49.33,1.89,9.74,2.89,19.67,3.74,29.57.55,6.49.07,13.07.13,19.61.01,1.2.51,2.39.56,3.59.08,1.78-.04,3.58-.68,5.34,2.34,2.68-.49,4.64-1.17,7.01-1.13,4-1.62,8.18-2.45,12.28-4.64,22.78-13.09,43.97-26.65,62.95-5.4,7.55-11.13,14.86-16.77,22.24-.57.75-1.55,1.19-2.33,1.77Z"/>
  <path class="cls-7" d="m276.66,321.74c15,6.28,30.75,7.48,46.77,6.77-11.82,12.48-25.44,22.68-40.27,31.28-17.49,10.15-36.32,16.79-56.07,20.89-.96.2-1.97.16-2.95.23,4.74-4.2,9.81-8.08,14.16-12.65,8.37-8.79,16.33-17.96,24.46-26.97,4.43-6.5,8.86-12.99,13.29-19.49.2-.04.41-.06.61-.07Z"/>
  <path class="cls-2" d="m284.52,27.57c-4.07-3.4-8.14-6.81-12.21-10.21,5.71-.04,11.43-.21,17.13-.01,1.3.05,3.35,1.17,3.63,2.19.31,1.16-.63,3.11-1.64,4.08-1.72,1.64-3.91,2.79-5.9,4.14-.34-.06-.67-.13-1.01-.19Z"/>
  <path class="cls-2" d="m299.58,43.29c-2.9-3.39-5.81-6.79-8.72-10.18,5.19.04,10.42-.28,15.55.27,2.6.28,2.6,4,0,6.05-1.9,1.5-4,2.75-6.01,4.1-.28-.09-.55-.17-.83-.26Z"/>
  <path class="cls-2" d="m313.28,61.04c-2.66-3.6-5.31-7.21-7.96-10.81,4.24,0,8.5-.14,12.72.11,1.26.07,3.13,1.02,3.48,2,.34.96-.6,2.82-1.53,3.68-2.05,1.88-4.45,3.37-6.7,5.02Z"/>
  <path class="cls-10" d="m317.18,66.54c.05.59.1,1.18.15,1.77-4.21.43-8.42,1.04-12.65,1.22-1.78.08-3.65-.61-5.39-1.21-.76-.26-1.31-1.16-1.96-1.78.68-.44,1.31-1.06,2.05-1.28,4.62-1.35,9.26-2.6,13.89-3.89,1.3,1.72,2.6,3.45,3.9,5.17Z"/>
  <path class="cls-2" d="m265.22,12.75c-5.8-2.71-11.6-5.43-17.4-8.14,5.89-.05,11.77-.21,17.65-.05,1.24.03,3.36,1.13,3.47,1.94.17,1.28-.93,2.79-1.7,4.09-.49.83-1.34,1.45-2.02,2.16Z"/>
  <path class="cls-10" d="m299.58,43.29c.28.09.55.17.83.26,1.39,1.97,2.78,3.95,4.17,5.92-5.38.5-10.76,1.04-16.15,1.41-.57.04-1.21-.97-1.82-1.5.76-.68,1.41-1.62,2.29-1.99,3.52-1.46,7.11-2.75,10.68-4.1Z"/>
  <path class="cls-10" d="m284.52,27.57c.34.06.67.13,1.01.19,1.59,1.75,3.17,3.49,4.76,5.24-3.27.61-6.53,1.29-9.81,1.81-1.87.3-3.79.33-5.69.48l-.6-1.33c1.11-.81,2.17-1.72,3.35-2.43,2.29-1.38,4.65-2.65,6.97-3.97Z"/>
  <path class="cls-11" d="m276.04,321.8c-4.43,6.5-8.86,12.99-13.29,19.49-6.49-.01-13,.22-19.48-.09-15.34-.74-30.25-3.7-44.71-9-14.71-5.39-28.39-12.68-40.92-22.07-11.58-8.67-22.42-18.17-31.32-29.65-6.54-8.44-12.48-17.36-19.25-25.61-11.45-13.97-26.05-22.31-44.39-23.97-12.12-1.1-23.4,1.16-34.25,6.35-.36.17-1.01-.24-1.52-.38,5.17-3.66,10.33-7.32,15.5-10.97,1.11-.79,2.25-1.54,3.37-2.31,5.18-2.73,10.26-5.67,15.56-8.14,17.94-8.36,36.47-14.22,56.51-15.45,11.31-.69,22.31.19,33.24,2.33,19.23,3.76,36.38,12.61,53.06,22.53,12.87,7.65,24.86,16.98,39.6,21.13-9.66,5.6-12.75,14.43-11.03,24.8,2.82,17.04,12.29,30.18,25.93,40.31,5.44,4.04,11.56,7.17,17.38,10.71Z"/>
  <path class="cls-11" d="m23.87,239.2c.29-.24.59-.49.88-.73-.29.24-.59.49-.88.73Z"/>
  <path class="cls-3" d="m243.78,245.99c-14.74-4.15-26.73-13.47-39.6-21.13-16.68-9.92-33.83-18.77-53.06-22.53-10.93-2.14-21.93-3.02-33.24-2.33-20.04,1.23-38.57,7.09-56.51,15.45-5.3,2.47-10.38,5.41-15.56,8.14-1.08-7.85-2.56-15.66-3.12-23.55-.53-7.39-.18-14.86-.03-22.28.09-4.34.53-8.66.82-13,7.98-4.22,15.97-8.43,23.95-12.65,3.14-1.2,6.23-2.56,9.43-3.58,13.78-4.39,27.85-7.03,42.29-8.48,13.83-1.39,27.56-1.64,41.37-.55,2.59.2,5.22.86,7.74.55,1.29-.16,3.14-1.88,3.34-3.11.2-1.26-1.16-2.93-2.17-4.14-.55-.66-1.79-.77-2.74-1.09-20.18-6.85-40.8-11.6-62.01-14.16-13.65-1.64-27.25-2.31-40.95-1.98-.75-.06-1.49-.12-2.24-.18,4.58-6.91,8.65-14.24,13.85-20.64,10.56-12.98,22.87-24.15,37.19-33,15.27-9.44,31.64-16.06,49.21-19.7.6-.12,1.24-.01,1.87,0-1.72,9.31,6.03,17.39,15.02,20.08,1.17.35,2.38.6,3.57.9-.29.39-.56.81-.88,1.17-1.07,1.21-3.3,2.97-3.04,3.51.77,1.56,2.37,3.33,3.95,3.71,1.86.45,4.08-.33,6.09-.81,11.09-2.66,22.15-5.45,33.25-8.08,5.4-1.28,8.44-4.46,8.92-10.02.62.29,1.25.58,1.87.87.56.21,1.11.42,1.67.63,0,0-.04-.03-.04-.03.82.71,1.57,1.52,2.46,2.12,7.13,4.83,14.36,9.53,20.01,16.21,2.34,2.76,5.19,5.17,7.13,8.18,3.87,6,7.27,12.3,10.86,18.48,1,2.54,2,5.07,3,7.61,1.28,5.49,2.55,10.98,3.83,16.47.29,4.04-1.5,8.32,1.4,12.05.06,6.98.13,13.97.19,20.95-.51,4.73-1.02,9.46-1.53,14.19-1.49,8.76-2.98,17.52-4.47,26.28-1.58,5.73-3.15,11.45-4.73,17.18-3.71,7.27-7.43,14.55-11.14,21.82-.82.89-1.65,1.77-2.46,2.67-3.18,3.54-6.58,6.74-11.67,7.16-1.03.21-2.05.41-3.08.62Z"/>
  <path class="cls-11" d="m230.48,52.51c-.48,5.56-3.52,8.74-8.92,10.02-11.1,2.63-22.16,5.42-33.25,8.08-2.01.48-4.23,1.26-6.09.81-1.59-.39-3.18-2.15-3.95-3.71-.26-.54,1.97-2.29,3.04-3.51.32-.37.59-.78.88-1.17,11.56-1.64,21.54-6.66,29.96-14.62,7.31-6.91,12.5-6.53,18.04,1.82.1.76.2,1.52.3,2.28Z"/>
  <path class="cls-2" d="m221.48,12.22c-.38,3.32-.82,5.23-3.86,3.29-.56-.36-1.46-.53-2.09-.36-1.75.48-4.15,1.83-4.55-.76-.26-1.7,1.25-4.25,2.75-5.45,1.05-.85,3.62-.54,5.12.13,1.28.57,2.02,2.37,2.62,3.15Z"/>
  <path class="cls-11" d="m63.71,115.57c13.7-.34,27.3.33,40.95,1.98,21.21,2.56,41.83,7.31,62.01,14.16.94.32,2.18.43,2.74,1.09,1.01,1.21,2.37,2.88,2.17,4.14-.19,1.23-2.04,2.95-3.34,3.11-2.52.31-5.15-.34-7.74-.55-13.81-1.09-27.54-.83-41.37.55-14.44,1.45-28.51,4.1-42.29,8.48-3.2,1.02-6.29,2.38-9.43,3.58-1.61-.63-3.19-1.33-4.82-1.89-6.14-2.13-11.42-8.57-11.6-14.21-.31-9.84,3.06-15.93,10.51-19.11.78-.33,1.47-.88,2.21-1.33Z"/>
  <path class="cls-9" d="m274.44,98.97c-3.59-6.18-6.99-12.48-10.86-18.48-1.94-3.01-4.79-5.41-7.13-8.18-5.65-6.68-12.88-11.37-20.01-16.21-.89-.6-1.64-1.41-2.46-2.12,5.04,2.17,10.43,3.78,15.03,6.66,6.37,3.98,12.84,8.25,17.99,13.62,6.38,6.65,11.89,14.27,16.94,22.02,4.18,6.41,7.75,13.37,10.53,20.51,5.34,13.71,9.41,27.86,10.8,42.6,1.32,14.1,2.87,28.22,3.37,42.36.29,8.19-2.03,16.47-1.87,24.68.24,11.75-2.45,22.96-5.07,34.14-4.91,20.93-12.92,40.71-24.03,59.18-.38.64-.68,1.33-1.01,2-.21,0-.41.02-.61.07-5.81-3.54-11.93-6.67-17.38-10.71-13.64-10.12-23.11-23.27-25.93-40.31-1.72-10.38,1.37-19.2,11.03-24.8,1.03-.21,2.06-.41,3.08-.62,3.73,6.1,9.08,10.62,15.12,14.08,4.89,2.8,10.31,4.73,15.63,6.67,1.04.38,2.7-.96,4.07-1.5-.55-1.26-.79-2.86-1.71-3.74-7.76-7.39-13.7-16.11-18.98-25.35,3.71-7.27,7.43-14.55,11.14-21.82,8.93,3.76,18.06,3.89,27.26,1.29,1.3-.37,2.25-1.96,3.37-2.98-1.06-1.1-1.93-2.8-3.21-3.21-7.45-2.35-14.17-5.9-20.13-10.96-.71-.61-1.7-.88-2.56-1.31,1.49-8.76,2.98-17.52,4.47-26.28,6.02-.47,12.05-.78,18.03-1.55,1.3-.17,2.39-1.98,3.58-3.04-1.18-1.07-2.19-2.54-3.58-3.13-5.44-2.31-10.99-4.34-16.5-6.47-.06-6.98-.13-13.97-.19-20.95,3.09-.29,6.25-.31,9.24-1.01,1.36-.32,2.41-1.99,3.61-3.04-1.06-1.17-1.9-2.77-3.22-3.42-3.57-1.75-7.34-3.08-11.03-4.58-1.28-5.49-2.55-10.98-3.83-16.47,1.57-.28,3.21-.36,4.68-.92.84-.32,1.76-1.33,1.94-2.17.12-.6-.81-1.84-1.52-2.1-2.64-.96-5.39-1.64-8.09-2.42Z"/>
  <path class="cls-9" d="m234.02,54.01c-.55-.21-1.11-.42-1.67-.63.55.21,1.11.42,1.67.63Z"/>
  <path class="cls-10" d="m260.99,235.53c5.27,9.23,11.22,17.95,18.98,25.35.92.88,1.16,2.47,1.71,3.74-1.37.54-3.03,1.88-4.07,1.5-5.32-1.94-10.74-3.87-15.63-6.67-6.04-3.46-11.4-7.98-15.12-14.08,5.1-.42,8.49-3.62,11.67-7.16.81-.9,1.64-1.78,2.46-2.67Z"/>
  <path class="cls-10" d="m276.86,196.53c.86.43,1.85.71,2.56,1.31,5.95,5.06,12.67,8.62,20.13,10.96,1.28.4,2.15,2.11,3.21,3.21-1.11,1.03-2.07,2.62-3.37,2.98-9.19,2.6-18.33,2.47-27.26-1.29,1.58-5.73,3.15-11.46,4.73-17.18Z"/>
  <path class="cls-10" d="m282.86,156.05c5.51,2.13,11.07,4.16,16.5,6.47,1.39.59,2.4,2.06,3.58,3.13-1.19,1.06-2.28,2.87-3.58,3.04-5.98.77-12.02,1.08-18.03,1.55.51-4.73,1.02-9.46,1.53-14.19Z"/>
  <path class="cls-10" d="m281.27,123.05c3.69,1.5,7.46,2.84,11.03,4.58,1.31.64,2.16,2.25,3.22,3.42-1.19,1.06-2.24,2.73-3.61,3.04-3,.7-6.15.71-9.24,1.01-2.9-3.73-1.11-8.01-1.4-12.05Z"/>
  <path class="cls-10" d="m274.44,98.97c2.71.78,5.45,1.46,8.09,2.42.71.26,1.64,1.5,1.52,2.1-.17.84-1.1,1.86-1.94,2.17-1.46.56-3.11.64-4.68.92-1-2.54-2-5.07-3-7.61Z"/>
</svg>