<?xml version="1.0" encoding="UTF-8"?><svg id="Layer_1" xmlns="http://www.w3.org/2000/svg" viewBox="0 0 150 150"><defs><style>.cls-1{fill:#fbb9b0;}.cls-2{fill:#ffdc40;}.cls-3{fill:#925130;}.cls-4{fill:#533e5b;}.cls-5{fill:#fbe0dd;}.cls-6{fill:#fefeff;}.cls-7{fill:#af6646;}.cls-8{fill:#ffc838;}.cls-9{fill:#f8c9c0;}.cls-10{fill:#ed875a;}.cls-11{fill:#ee8d5e;}.cls-12{fill:#e07e50;}.cls-13{fill:#d26f43;}.cls-14{fill:#fefefe;}</style></defs><path class="cls-6" d="m65.24,150H0V0C26.05,0,52.12,0,78.18,0c.06.36.12.72.19,1.07-.19.08-.38.16-.57.24-1.05,0-2.11,0-3.16,0-.31.09-.85-.61-.93.27-.26.11-.52.22-.77.33-.27.11-.55.21-.81.34-2.08,1.01-4.1,2.09-4.82,4.54-1.36.23-2.73.4-4.08.71-3.17.71-6.34,1.42-9.48,2.26-1.8.48-3.55,1.16-5.28,1.87-2.37.97-4.72,2-7.03,3.1-1.38.66-2.73,1.42-3.98,2.3-2.97,2.07-6.02,4.06-8.78,6.39-2.77,2.34-5.35,4.94-7.79,7.63-2.02,2.22-3.8,4.68-5.52,7.15-1.31,1.88-2.37,3.94-3.51,5.94-.39.69-.65,1.45-.98,2.18-.63.94-1.4,1.79-1.62,2.99-.26,1.42-1.34,2.5-1.62,3.98-.39,2.08-1.56,3.95-1.95,6.07-.4,2.22-.97,4.42-1.46,6.62-.8.32-.88.64-.3,1.13-.14,1.25-.29,2.5-.43,3.74-.66.39-1.11.86-.7,1.7-.5,1.93-.63,3.87-.03,5.81-.06.69-.11,1.37-.17,2.06.05.13.11.25.16.38,0,.19,0,.38,0,.56-.83.82-.42,2.6.73,3.19.07,1.12.15,2.24.22,3.36-.13.38-.52.84.28.95.32,1.75.66,3.51.96,5.26.1.57-.01,1.2.6,1.55.06.52.02,1.07.19,1.55,1.3,3.6,2.53,7.23,4.01,10.75,1.9,4.53,4.38,8.8,7.38,12.68,2.67,3.45,5.73,6.61,8.65,9.86.58.65,1.33,1.15,2.03,1.69,2.7,2.09,5.38,4.2,8.13,6.22,1.19.88,2.48,1.67,3.81,2.32,3.01,1.49,6.05,2.94,9.14,4.27,2.1.9,4.26,1.74,6.48,2.3,3.17.8,6.41,1.31,9.63,1.95.06.24.13.48.19.72ZM1.41.93l-.05.37c.28.04.55.12.83.12.31,0,.61-.11.92-.09,1.29.04,2.58.17,3.86.17,18.34.01,36.68,0,55.02,0,.28,0,.56,0,.84,0,2.01,0,4.03,0,6.04-.02.33,0,.66-.13.99-.2-.01-.11-.03-.23-.04-.34H1.41Z"/><path class="cls-6" d="m89.06,150h-.38c0-.43,0-.85,0-1.28.75-.2,1.5-.39,2.26-.59,1.23-.3,2.47-.56,3.68-.92,2.07-.61,4.12-1.29,6.18-1.94.54.27,1.08.53,1.75.86-.17-.63-.28-1.03-.38-1.42.32-.17.63-.34.95-.52.15.11.3.22.45.34.09-.19.19-.39.28-.58.86-.37,1.71-.75,2.57-1.12.27.08.55.15.7.25.2.31.42.5.63.69.15-.25.3-.49.57-.93-.55.11-.81.17-1.2.24.12-.27.12-.52.12-.77.25-.12.5-.25.75-.37.33.89.91,1.3,1.46,1.02,1.08-.53,2.19-1.05,1.54-2.61-.01-.03,0-.06,0-.09.29-.14.58-.28.87-.43.66.39.64-.06.63-.51.56-.32,1.12-.65,1.68-.97.3.66-.04,1.02-.58,1.35-.53.32-1.04.68-1.5,1.09-.14.12-.09.44-.13.67.2-.07.41-.13.59-.23.35-.19.66-.5,1.02-.59.83-.2,1.33-.84,1.26-1.73-.01-.15.08-.32.13-.51.84.77,1.77.53,2.05-.31-.42-.31-.79-.59-1.16-.86.16-.07.32-.13.49-.2.15-.18.31-.35.46-.53.3-.19.6-.39.9-.58.26.16.52.32.85.52-.44.27-.74.45-1.15.71.57.42.91.71,1.26-.03.12-.27.42-.46.66-.66.23-.2.48-.38.56-.44-.28-.53-.46-.88-.65-1.23.25-.19.5-.38.74-.56.37.41.75.82,1,1.1.76-.75,1.33-1.32,1.9-1.88-.35-.04-.64.07-.94.19-.43.18-.89.63-1.21-.14,1.5-1.31,3.01-2.61,4.51-3.92l.64.97c.18-.48.02-1.08.21-1.22.73-.56,1.56-.98,2.37-1.43.34-.19.75-.24,1.05-.46.76-.57,1.05-1.7,2.2-1.84.17-.02.39-.35.42-.57.19-1.15.73-2.05,1.64-2.81.52-.44.87-1.11,1.22-1.72.11-.2-.04-.54-.08-.82-.52.29-.95.57-1,.91-.17,1.26-1.12,1.31-2.03,1.47.71-.93,1.42-1.86,2.13-2.8.14-.1.28-.21.41-.31.13-.4.26-.79.39-1.19.05-.06.1-.13.16-.19.36-.57.71-1.13,1.07-1.7.14-.2.28-.4.41-.61.1-.23.2-.46.29-.69.1-.12.2-.24.29-.37.29-.51.58-1.02.87-1.53.53.15,1.06.29,1.69.47,0-.18-.04-.4-.03-.62.02-.22.02-.6.14-.64.75-.3.49-.69.21-1.16-.13-.21-.13-.5-.23-.92.5.16.83.27,1.27.42-.08-.75-.12-1.41-.94-1.65.06-.13.11-.26.17-.38.38-.09.76-.17,1.14-.26-.21-.29-.41-.59-.62-.88.4-.99.8-1.98,1.19-2.97.29-.01.57-.03,1.16-.05-.43-.37-.64-.54-.85-.72.16-.43.31-.85.47-1.28.29-.11.57-.22.86-.33l-.53-.62c.09-.44.19-.88.28-1.31.04-.06.09-.11.13-.17h0c.24-.11.48-.22.72-.32-.14-.15-.28-.31-.42-.46.01-.09.03-.18.04-.28,0-.08.02-.15.03-.23.14-.38.27-.77.41-1.15.27-.02.54-.04.75-.05.04-.44.1-.8.09-1.15-.02-.49-.1-.99-.15-1.48-.02-.05-.01-.09.02-.13h1.24c.07-.09.14-.18.21-.27-.35-.53-.7-1.07-1.05-1.6.08-.44.16-.87.24-1.31.41-.26,1.06-.43,1.19-.79.22-.61-.13-1.2-.8-1.49.03-.24.07-.48.11-.72.1-.07.2-.14.3-.22l-.27-.16c.06-.5.13-1,.19-1.5.81-.28,1.36-1.34,1.22-2.2-.07-.41-.09-.87.04-1.26.88-2.81.83-5.61,0-8.42-.11-.38-.18-.8-.13-1.18.13-1.06-.13-1.61-1.13-2.12-.15-1.25-.29-2.49-.44-3.74l.34-.22c-.15-.12-.3-.24-.45-.35-.23-1.31-.4-2.63-.72-3.92-.53-2.19-1.15-4.35-1.75-6.52-.29-1.03-.62-2.04-.93-3.07.3-.39.64-.75.86-1.17.05-.1-.25-.52-.46-.59-.35-.12-.76-.08-1.15-.11-1.11-2.3-2.22-4.59-3.32-6.89-.14-.3-.19-.64-.28-.96-.14-.13-.28-.26-.41-.39-1.48-2.32-2.97-4.63-4.45-6.95-.05-.06-.1-.12-.15-.18-2.59-3.47-5.37-6.78-8.48-9.8-.15-.35-.28-.72-.45-1.06-.28-.56-.57-1.12-.86-1.68.18-.02.35-.03.53-.05.97.09,1.75-.3,2.58-.95-.46-.25-.76-.42-1.07-.59.75-1.38.54-1.73-1-2.23-1.61-.53-3.2-.16-4.8-.09-.76-.77-1.51-1.54-2.27-2.31,0-.07,0-.13.01-.2.24-.18.47-.37.72-.54.65-.45,1.39-.8,1.93-1.36.34-.34.54-.99.49-1.47-.02-.28-.62-.61-1.02-.73-1.93-.62-3.89-.46-5.85-.17-.12-.02-.24-.03-.37-.05-.21-.25-.42-.51-.63-.76-.31-.37-.63-.73-.94-1.09.81-.6,1.67-1.14,2.41-1.82.34-.31.68-.97.57-1.33-.12-.4-.72-.88-1.16-.94-2.28-.32-4.57-.5-6.84.13-.94-.51-1.89-1-2.82-1.53-.12-.07-.14-.3-.2-.46.36-.32.75-.62,1.07-.98.88-.96.85-1.26-.1-2.09-.13-.04-.26-.09-.39-.13-2.19-.02-4.37-.04-6.56-.06-.31-.45-.62-.46-.93.01-.94-.25-1.88-.49-2.82-.74,0-.31,0-.62,0-.92C112.43,0,131.12,0,149.81,0c.06.06.13.12.19.19v148.12c-.14.1-.3.19-.42.31-.2.19-.39.41-.58.61-.22-.27-.46-.53-.67-.81-.08-.11-.09-.28-.1-.32-.61.07-1.15.19-1.69.19-15.96,0-31.92.01-47.88-.01-.58,0-1.15-.29-1.73-.42-.2-.04-.42-.05-.61,0-.69.2-1.35.48-2.04.64-1.08.26-2.17.61-3.26.61-.87,0-1.42.31-1.96.87ZM106,.92c.02.11.04.22.06.34,1.44.08,2.87.23,4.31.23,2.62,0,5.23-.16,7.85-.16,8.49-.02,16.99-.01,25.48,0,.43,0,.86.11,1.29.11,1.09-.01,2.17-.06,3.26-.09.03-.11.06-.22.1-.33-.21-.14-.4-.38-.63-.41-.48-.07-.97-.03-1.46-.03-12.8,0-25.61,0-38.41.01-.61,0-1.23.22-1.84.34Zm29.33,118.21c.08.14.17.27.25.41.43-.22,1-.33,1.24-.68.25-.35-.54-1.33-1.05-1.37.2.35.39.67.53.92-.39.29-.68.5-.97.71Zm-10.89-95.19c-.1.02-.2.03-.3.05.08.3.08.68.26.89.2.23.57.31.87.46l.13-.25-.96-1.15Zm2.17,2.59c.11-.11.22-.22.34-.33-.34-.23-.68-.46-1.03-.67-.04-.02-.17.12-.26.19.32.27.63.53.95.8Zm.23-5.69c-.13.33-.25.49-.24.65,0,.14.16.28.25.41.15-.11.34-.2.42-.34.04-.08-.15-.26-.43-.72Zm11.92,93.46c.04.12.09.24.13.36.31-.12.62-.25.94-.37-.03-.08-.06-.17-.09-.25-.32.08-.65.17-.97.25Zm7.87-16.17c-.07-.1-.15-.2-.22-.3-.17.13-.36.23-.5.39-.03.03.12.23.18.35.18-.15.35-.29.53-.44Zm.82-2.7c-.14-.15-.24-.33-.31-.32-.15.03-.29.15-.43.24.09.13.17.36.27.37.12.02.27-.16.47-.29Zm-46.05,50.76c-.08-.04-.15-.07-.23-.11-.09.19-.18.37-.27.56.08.04.15.07.23.11.09-.19.18-.37.27-.56Zm44.12-45.73c-.15.16-.27.23-.29.32-.01.06.12.23.17.22.09-.01.22-.1.25-.19.03-.07-.06-.18-.13-.35Zm-46.78,47.16c.11-.16.23-.25.23-.33,0-.08-.13-.15-.2-.23-.08.08-.21.15-.23.25-.02.06.1.17.21.31ZM110.9,4.98c0-.08,0-.17-.01-.25-.18.03-.37.06-.55.09,0,.06.02.11.02.17h.54Zm21.36,27.49c-.17-.09-.27-.19-.36-.18-.07,0-.2.18-.18.22.04.09.15.19.25.21.06.01.15-.12.29-.25Zm11.9,72.16c-.06-.06-.12-.11-.18-.17-.1.13-.2.25-.3.38.04.04.08.08.13.12.12-.11.24-.22.35-.32Zm-6.86-64.52c-.11-.14-.16-.21-.2-.27-.06.05-.18.11-.17.14.03.09.08.19.16.24.03.02.14-.06.22-.11Zm-13.72,92.98c.06-.11.15-.2.13-.24-.04-.08-.14-.13-.21-.19-.03.08-.09.16-.08.23,0,.06.09.12.16.2Zm-17.26,10.76c-.07.09-.15.15-.16.21,0,.07.05.15.09.23.07-.07.17-.12.21-.2.02-.04-.07-.13-.13-.24Zm30.73-27.07c.07-.1.15-.16.15-.22,0-.07-.06-.15-.1-.22-.07.07-.16.13-.2.21-.02.04.08.12.14.23Zm-11.69,14.33c-.02-.05-.03-.13-.07-.15-.04-.02-.1.03-.16.05.02.05.03.13.07.15.04.02.1-.03.16-.05Zm12.56-89.81c-.02-.05-.03-.13-.07-.15-.04-.02-.1.03-.16.05.02.05.03.13.07.15.04.02.1-.03.16-.05Zm-1.5,78.46c-.05-.02-.12-.07-.15-.06-.04.01-.05.1-.07.15.05.02.12.07.15.06.04-.01.05-.1.07-.15Z"/><path class="cls-13" d="m65.05,149.28c-3.21-.64-6.45-1.15-9.63-1.95-2.21-.56-4.37-1.39-6.48-2.3-3.09-1.33-6.12-2.78-9.14-4.27-1.33-.66-2.62-1.44-3.81-2.32-2.75-2.02-5.43-4.14-8.13-6.22-.7-.54-1.45-1.04-2.03-1.69-2.93-3.25-5.99-6.4-8.65-9.86-2.99-3.88-5.47-8.14-7.38-12.68-1.48-3.52-2.71-7.15-4.01-10.75-.17-.48-.13-1.03-.19-1.55.47-.21.99-.34,1.39-.63,1.69-1.22,3.35-2.49,5.03-3.74.59.06,1.2.27,1.75.16,1.03-.2,1.99-.71,3.02-.88,2.47-.4,4.94-.71,7.49-.46,3.49.35,6.74,1.27,9.82,2.93,3.65,1.96,6.6,4.63,8.87,8.08,2.7,4.11,5.74,7.97,9.1,11.56,3.73,3.99,7.86,7.51,12.45,10.51,4.3,2.81,8.82,5.13,13.67,6.8,4.49,1.54,9.05,2.76,13.84,2.94,2.79.1,5.57.4,8.36.5.56.02,1.27-.35,1.67-.77.74-.78,1.34-1.69,1.92-2.6,1.03-1.63,2.53-3,2.9-5.02.12,0,.25,0,.37-.01.31.07.62.13.93.2-.01.1-.03.2-.04.31-.58.88-1.12,1.78-1.73,2.63-1.63,2.23-3.17,4.55-4.97,6.64-2.64,3.06-5.4,6.02-8.23,8.91-1.72,1.75-3.65,3.29-5.49,4.92-.92.21-1.85.42-2.77.63-.3,0-.6,0-.9,0-.07.02-.14.04-.21.05l-.58.04c-1.58-.04-3.16-.1-4.73-.09-.18,0-.35.46-.52.7h-4.5c-.24-.06-.49-.12-.73-.19-.26-.06-.51-.13-.77-.19-.76-.05-1.52-.11-2.28-.16-.49,0-.98,0-1.46.01-.38,0-.76-.01-1.13-.02-.69-.06-1.38-.12-2.07-.18Z"/><path class="cls-11" d="m113.08,12.73c.12.02.24.03.37.05.19.26.35.55.56.78,1.05,1.17,2.11,2.33,3.16,3.49,0,.07,0,.13-.01.2-1.51.45-3.02.89-4.52,1.38-.27.09-.45.43-.67.65.25.2.49.55.75.56,1.45.02,2.91-.07,4.37-.08.77,0,1.58-.47,2.32.11.95,1.32,1.91,2.65,2.86,3.97-.01.11-.02.23-.03.34-1.74.43-3.49.84-5.22,1.31-.36.1-.66.45-1.18.82.62.23.95.44,1.3.47,1.79.16,3.59.29,5.38.38.48.03.97-.12,1.46-.18.07.1.17.18.22.29,1.58,3.09,3.17,6.19,4.74,9.29,2.16,4.29,3.61,8.85,4.95,13.44.76,2.59,1.4,5.22,1.99,7.85.37,1.63.55,3.3.81,4.95-.98.27-2.22,0-2.73,1.29-.08-.33-.15-.65-.24-.98-.58-2.1-1.08-4.23-1.77-6.29-.83-2.47-1.83-4.87-2.76-7.31.12-.28.4-.61.32-.82-.48-1.27-1-2.52-1.59-3.74-.37-.77-.88-1.48-1.34-2.22-.76-1.23-1.45-2.49-2.29-3.66-1.08-1.51-2.24-2.97-3.42-4.4-1.75-2.12-3.45-4.3-5.38-6.25-1.76-1.76-3.75-3.31-5.73-4.83-2.56-1.97-5.13-3.93-7.84-5.68-1.68-1.09-3.64-1.73-5.44-2.65-.95-.48-1.82-.33-2.67.09-1.59.8-2.81,2.06-3.98,3.38-.25-.15-.53-.26-.73-.45-1.43-1.39-3.21-1.66-4.75-.63-.59.39-1.14.87-1.64,1.38-3.37,3.4-7.67,4.84-12.18,5.89-.2-.19-.37-.44-.61-.56-1.04-.53-2.25-.84-3.14-1.55-1.98-1.59-3.57-3.48-3.02-6.33.94-.72,1.9-1.43,2.83-2.17.22-.18.39-.43.58-.65.23.12.45.28.69.37,2.01.74,4.02.28,6.02-.08.4-.07.78-.29,1.16-.43.41-.16.85-.26,1.21-.48.98-.6,2.22-1,2.21-2.49,0-1.86.07-3.73-.04-5.59-.07-1.23-.4-2.44-.61-3.66.19-.08.38-.16.57-.24.38-.1.76-.2,1.14-.31.49-.02.98-.03,1.47-.05.54-.17,1.51.58,1.52-.72h6c.51.64,1.16.76,1.91.5.12,0,.23.02.35.03.31.06.62.12.94.18.37.02.74.04,1.11.05,0,0,0,0,0,0,.07.03.13.06.2.08.25.03.5.05.75.08.94.25,1.88.49,2.82.74.11.03.21.05.32.08.27.18.52.4.81.54,1.45.67,2.92,1.3,4.38,1.96.47.21.93.45,1.39.68.06.16.08.4.2.46.93.53,1.88,1.03,2.82,1.53.27.24.53.49.81.72,1.31,1.08,2.62,2.15,3.93,3.22-.16.17-.29.41-.48.51-1,.48-2.04.9-3.03,1.41-.26.13-.4.49-.59.74.22.12.47.37.66.34,1.77-.34,3.53-.74,5.3-1.12Zm-28.48-9.37c-1.43,0-2.43.91-2.33,2.06.07.84.77,1.24,1.44.76.47-.34.81-.35,1.34-.11.38.17,1.12.15,1.36-.1.24-.26.21-.96.04-1.38-.33-.83-.93-1.42-1.86-1.23Z"/><path class="cls-14" d="m89.06,150c.53-.55,1.08-.87,1.96-.87,1.09,0,2.18-.35,3.26-.61.69-.16,1.36-.44,2.04-.64.19-.06.42-.05.61,0,.58.13,1.16.42,1.73.42,15.96.02,31.92.02,47.88.01.54,0,1.08-.12,1.69-.19.01.04.02.2.1.32.2.28.44.54.67.81.19-.2.37-.42.58-.61.13-.12.28-.21.42-.31v1.69h-60.94Z"/><path class="cls-14" d="m84.94,149.28c.92-.21,1.85-.42,2.77-.63.32.02.65.04.97.07,0,.43,0,.85,0,1.28h-3.94c.07-.24.13-.48.2-.72Z"/><path class="cls-11" d="m77.99,150c.17-.25.34-.7.52-.7,1.58-.02,3.16.05,4.73.09-.22.14-.43.29-.65.43-.35.06-.69.12-1.04.18h-3.56Z"/><path class="cls-5" d="m92.8.76c-.37-.02-.74-.04-1.11-.05-.31-.06-.62-.12-.94-.18-.12,0-.23-.02-.35-.03.11-.17.23-.34.34-.5.75,0,1.5,0,2.25,0-.07.25-.13.51-.2.76Z"/><path class="cls-5" d="m82.6,149.82c.22-.14.43-.29.65-.43.19-.01.38-.03.58-.04.07-.02.14-.04.21-.05.3,0,.6,0,.9,0-.07.24-.13.48-.2.72h-2.25c.03-.06.07-.12.1-.18Z"/><path class="cls-5" d="m65.05,149.28c.69.06,1.38.12,2.07.18,0,.18,0,.36,0,.54h-1.88c-.06-.24-.13-.48-.19-.72Z"/><path class="cls-14" d="m79.51.77c-.38.1-.76.2-1.14.31-.06-.36-.12-.72-.19-1.07.44,0,.88,0,1.31,0,0,.26,0,.51.01.77Z"/><path class="cls-5" d="m79.51.77c0-.26,0-.51-.01-.77.5,0,1,0,1.5,0,0,.24-.01.48-.02.72-.49.02-.98.03-1.47.05Z"/><path class="cls-1" d="m80.98.72c0-.24.01-.48.02-.72.5,0,1,0,1.5,0,0,1.3-.98.55-1.52.72Z"/><path class="cls-1" d="m90.75,0c-.12.17-.23.34-.34.5-.75.26-1.39.14-1.91-.5C89.25,0,90,0,90.75,0Z"/><path class="cls-1" d="m68.25,149.48c.49,0,.98,0,1.46-.01.26.1.51.2.77.3,0,.08,0,.16,0,.23h-.38c-.05-.06-.09-.12-.14-.18-.08.06-.16.12-.23.18h-.38s-.03-.09-.05-.13c-.05.04-.09.09-.14.13h-.38c-.19-.17-.37-.35-.56-.52Z"/><path class="cls-9" d="m68.25,149.48c.19.17.37.35.56.52h-1.69c0-.18,0-.36,0-.54.38,0,.76.01,1.13.02Z"/><path class="cls-14" d="m92.8.76c.07-.25.13-.51.2-.76.25,0,.5,0,.75,0,0,.31,0,.62,0,.92-.25-.03-.5-.05-.75-.08-.07-.03-.13-.06-.2-.08,0,0,0,0,0,0Z"/><path class="cls-11" d="m70.49,149.77c-.26-.1-.51-.2-.77-.3.76.05,1.52.11,2.28.16,0,.06,0,.13,0,.19-.25.06-.51.13-.76.19h-.38l-.38-.23Z"/><path class="cls-7" d="m71.24,150c.25-.06.51-.13.76-.19.25,0,.51,0,.76,0,.24.06.49.12.73.19-.75,0-1.5,0-2.25,0Z"/><path class="cls-4" d="m82.6,149.82c-.03.06-.07.12-.1.18h-.94c.35-.06.69-.12,1.04-.18Z"/><path class="cls-7" d="m69.74,150c.08-.06.16-.12.23-.18.05.06.09.12.14.18h-.38Z"/><path class="cls-7" d="m70.49,149.77l.38.23h-.38c0-.08,0-.16,0-.23Z"/><path class="cls-14" d="m150,.19c-.06-.06-.13-.13-.19-.19.06.06.13.13.19.19Z"/><path class="cls-7" d="m69.18,150s.09-.09.14-.13c.02.04.03.09.05.13h-.19Z"/><path class="cls-2" d="m67.15,13.68c-.19.22-.35.48-.58.65-.93.74-1.88,1.45-2.83,2.17-1.01.16-2.03.25-3.02.49-4.89,1.18-9.53,3.02-13.9,5.48-2.54,1.43-5.05,2.98-7.33,4.78-2.55,2.01-4.87,4.32-7.21,6.58-2.59,2.49-4.74,5.36-6.65,8.39-.57.91-1.49,1.71-1.45,2.94-3.52-.01-6.99.41-10.46.95-.93.14-1.88.16-2.82.23.32-.73.58-1.49.98-2.18,1.13-2,2.2-4.05,3.51-5.94,1.72-2.47,3.5-4.93,5.52-7.15,2.44-2.69,5.02-5.29,7.79-7.63,2.76-2.33,5.81-4.32,8.78-6.39,1.25-.87,2.6-1.64,3.98-2.3,2.31-1.11,4.66-2.13,7.03-3.1,1.73-.71,3.48-1.38,5.28-1.87,3.14-.84,6.31-1.55,9.48-2.26,1.34-.3,2.72-.47,4.08-.71-.12,1.37-.29,2.74-.34,4.12-.03.91.11,1.83.18,2.75Z"/><path class="cls-13" d="m10.89,46.34c.94-.07,1.89-.08,2.82-.23,3.47-.54,6.95-.96,10.46-.95.19.01.38.02.56.03-.24.21-.45.46-.72.63-.82.53-1.84.87-2.45,1.58-2.74,3.16-2.22,7.87,1.1,10.39.81.61,1.65,1.38,2.87.97.14-.05.46.44.7.69-.39.19-.77.4-1.17.57-2.74,1.13-5.41,2.4-7.84,4.11-2.58,2-5.35,3.8-7.68,6.06-2.19,2.12-3.91,4.72-5.84,7.11-.05-1.26-.1-2.52-.17-3.77-.02-.44-.11-.89-.16-1.33.05-.44.09-.87.14-1.31.14-1.25.29-2.5.43-3.74.1-.38.2-.75.3-1.13.49-2.21,1.06-4.4,1.46-6.62.39-2.12,1.55-3.99,1.95-6.07.28-1.48,1.36-2.56,1.62-3.98.22-1.2.99-2.04,1.62-2.99Z"/><path class="cls-2" d="m3.71,77.29c1.93-2.39,3.65-4.99,5.84-7.11,2.33-2.26,5.1-4.06,7.68-6.06-.01.36,0,.73-.06,1.08-.06.32-.26.62-.3.94-.1.66-.15,1.32-.19,1.99-.13,2.17-.3,4.34-.36,6.51-.03,1.14.08,2.3.18,3.44.14,1.51.27,3.02.51,4.52.26,1.55.65,3.07.99,4.61-.74.49-1.49.98-2.22,1.48-1.26.87-2.51,1.76-3.76,2.64-1.67,1.25-3.33,2.52-5.03,3.74-.41.29-.93.43-1.39.63-.62-.36-.51-.99-.6-1.55-.31-1.76-.64-3.51-.96-5.26-.09-.32-.19-.63-.28-.95-.07-1.12-.15-2.24-.22-3.36-.06-.5-.12-1.01-.18-1.51-.07-1.56-.14-3.12-.21-4.68.19-.36.38-.72.57-1.08Z"/><path class="cls-3" d="m67.15,13.68c-.07-.92-.21-1.84-.18-2.75.05-1.38.22-2.75.34-4.12.72-2.46,2.73-3.53,4.82-4.54.26-.13.54-.23.81-.34.04.26.2.59.1.78-.75,1.46-.87,3-.66,4.59.24,1.81.76,3.51,1.78,5.04.27.41.58.79.87,1.18-.39.15-.76.36-1.16.43-2,.37-4,.82-6.02.08-.24-.09-.46-.24-.69-.37Z"/><path class="cls-7" d="m75.02,13.53c-.29-.39-.6-.77-.87-1.18-1.02-1.53-1.55-3.24-1.78-5.04-.21-1.59-.09-3.13.66-4.59.1-.19-.06-.52-.1-.78.26-.11.52-.22.77-.33.31-.09.62-.18.93-.27,1.05,0,2.11,0,3.16,0,.21,1.22.54,2.43.61,3.66.11,1.86.03,3.72.04,5.59,0,1.49-1.23,1.89-2.21,2.49-.37.22-.81.32-1.21.48Z"/><path class="cls-14" d="m1.41.93h68.42c.01.11.03.23.04.34-.33.07-.66.2-.99.2-2.01.02-4.03.02-6.04.02-.28,0-.56,0-.84,0-18.34,0-36.68,0-55.02,0-1.29,0-2.57-.12-3.86-.17-.31-.01-.61.1-.92.09-.28,0-.55-.08-.83-.12l.05-.37Z"/><path class="cls-1" d="m3.71,77.29c-.19.36-.38.72-.57,1.08-.12,0-.23,0-.35,0-.61-1.94-.47-3.87.03-5.81.19-.13.38-.26.56-.38.06.44.14.88.16,1.33.07,1.26.11,2.52.17,3.77Z"/><path class="cls-5" d="m2.79,78.38c.12,0,.23,0,.35,0,.07,1.56.14,3.12.21,4.68-.18-.56-.37-1.12-.55-1.68,0-.19,0-.38,0-.56-.05-.13-.11-.25-.16-.38.06-.69.11-1.37.17-2.06Z"/><path class="cls-14" d="m2.79,81.38c.18.56.37,1.12.55,1.68.06.5.12,1.01.18,1.51-1.15-.58-1.56-2.37-.73-3.19Z"/><path class="cls-14" d="m3.38,72.19c-.19.13-.38.26-.56.38-.41-.83.04-1.31.7-1.7-.05.44-.09.87-.14,1.31Z"/><path class="cls-14" d="m4.25,66c-.1.38-.2.75-.3,1.13-.58-.5-.5-.82.3-1.13Z"/><path class="cls-14" d="m3.75,87.93c.09.32.19.63.28.95-.8-.11-.41-.57-.28-.95Z"/><path class="cls-14" d="m74.64,1.32c-.31.09-.62.18-.93.27.08-.88.62-.18.93-.27Z"/><path class="cls-14" d="m2.62,80.43c.05.13.11.25.16.38-.05-.13-.11-.25-.16-.38Z"/><path class="cls-2" d="m136.67,62.81c-.26-1.65-.44-3.32-.81-4.95-.59-2.63-1.23-5.26-1.99-7.85-1.35-4.59-2.79-9.15-4.95-13.44-1.56-3.1-3.15-6.19-4.74-9.29-.05-.11-.15-.19-.22-.29-.07-.39-.14-.78-.22-1.17.25.13.51.26.76.38,3.1,3.03,5.89,6.33,8.48,9.8.05.06.1.12.15.18,1.48,2.32,2.97,4.63,4.45,6.95.14.13.28.26.41.39.09.32.14.66.28.96,1.1,2.3,2.21,4.6,3.32,6.89.25.62.5,1.25.74,1.87.31,1.02.65,2.04.93,3.07.6,2.17,1.22,4.33,1.75,6.52.31,1.29.48,2.61.72,3.92.04.19.07.38.11.57.15,1.25.29,2.49.44,3.74.05.61.1,1.23.16,1.84.08.86.21,1.73.24,2.59.05,1.8.12,3.61.05,5.41-.07,1.79-.29,3.57-.45,5.35-.06.5-.13,1-.19,1.5-.01.12-.02.25-.03.37-.03.24-.07.48-.1.72-.13.76-.26,1.52-.39,2.28-.08.44-.16.87-.24,1.31-.13.62-.26,1.25-.4,1.87-.03.04-.04.08-.02.13-.23.89-.46,1.79-.69,2.68-.14.38-.27.77-.41,1.15,0,.08-.02.15-.03.23-.01.09-.03.18-.04.28-.1.26-.2.52-.31.78,0,0,0,0,0,0-.04.06-.09.11-.13.17-.09.44-.19.88-.28,1.31-.11.32-.22.63-.32.95-.16.43-.31.85-.47,1.28-.1.26-.21.52-.31.78-.4.99-.8,1.98-1.19,2.97-.17.38-.34.76-.52,1.14-.06.13-.11.26-.17.38-.7,1.37-1.4,2.74-2.1,4.11-.29.51-.58,1.02-.87,1.53-.1.12-.2.24-.29.37-.1.23-.2.46-.29.69-.14.2-.28.4-.41.61-.36.57-.71,1.13-1.07,1.7-.05.06-.1.13-.16.19-.13.4-.26.79-.39,1.19-.14.1-.28.21-.41.31-.71.93-1.42,1.86-2.13,2.8-.2.24-.4.48-.6.71-1.02,1.2-2.04,2.4-3.06,3.6.12-.69.24-1.38.36-2.07.01-.11.03-.23.04-.34l.15-.2c.4-.87.86-1.72,1.2-2.61,1.24-3.18,2.5-6.35,3.63-9.56.64-1.84,1.13-3.74,1.53-5.65.7-3.33,1.3-6.68,1.9-10.03.58-3.22.84-6.48.93-9.75.08-2.61.13-5.23.19-7.84.02-.84.06-1.68,0-2.51-.16-2.13-.36-4.26-.57-6.38-.09-.89-.25-1.77-.38-2.65-.06-.31-.11-.62-.17-.94-.13-1-.26-2-.39-3Z"/><path class="cls-1" d="m114.18,138.35c-.56.32-1.12.65-1.68.97-.21.17-.42.34-.63.51-.29.14-.58.28-.87.43-1,.56-2,1.12-3,1.69-.25.12-.5.25-.75.37-.27.17-.55.34-.82.51-.86.37-1.71.75-2.57,1.12-.24.08-.49.17-.73.25-.32.17-.63.34-.95.52-.46.18-.91.37-1.37.55-2.06.65-4.11,1.33-6.18,1.94-1.21.36-2.45.62-3.68.92-.33-.52-.3-.93.22-1.36,1.26-1.05,2.52-2.1,3.7-3.25,2.97-2.9,5.83-5.89,8.25-9.28.38-.54,1.17-.97,1.84-1.08,2.28-.39,4.61-.55,6.89-.94,2.2-.37,4.38-.87,6.54-1.42,1.47-.37,2.91-.89,4.34-1.41.28-.1.45-.5.66-.76,1.17.03,2.34.08,3.19-.95.07.02.13.03.2.05l-1.52,1.83c-1.5,1.31-3.01,2.61-4.51,3.92-.25.25-.51.49-.76.74-.25.19-.5.38-.74.56-.51.38-1.01.76-1.52,1.14-.3.19-.6.39-.9.58-.15.18-.31.35-.46.53-.16.07-.32.13-.49.2-.56.37-1.12.75-1.69,1.12Z"/><path class="cls-9" d="m123.38,128.64c-.22.26-.39.66-.66.76-1.43.52-2.87,1.04-4.34,1.41-2.16.55-4.34,1.04-6.54,1.42-2.29.39-4.61.55-6.89.94-.66.11-1.45.54-1.84,1.08-2.42,3.39-5.29,6.38-8.25,9.28-1.17,1.15-2.43,2.2-3.7,3.25-.52.43-.55.84-.22,1.36-.75.2-1.5.39-2.26.59-.32-.02-.65-.04-.97-.07,1.84-1.63,3.77-3.17,5.49-4.92,2.83-2.89,5.6-5.84,8.23-8.91,1.8-2.09,3.34-4.4,4.97-6.64.62-.85,1.16-1.75,1.74-2.63.44.18.89.35,1.33.53,4.46,1.79,9.19,2.14,13.91,2.54Z"/><path class="cls-14" d="m106,.92c.61-.12,1.23-.34,1.84-.34,12.8-.02,25.61-.02,38.41-.01.49,0,.98-.04,1.46.03.22.03.42.26.63.41-.03.11-.06.22-.1.33-1.09.03-2.17.08-3.26.09-.43,0-.86-.11-1.29-.11-8.49,0-16.99-.02-25.48,0-2.62,0-5.23.16-7.85.16-1.44,0-2.87-.15-4.31-.23-.02-.11-.04-.22-.06-.34Z"/><path class="cls-4" d="m111.22,10.85c-1.31-1.07-2.62-2.15-3.93-3.22-.28-.23-.54-.48-.81-.72,2.27-.63,4.56-.45,6.84-.13.44.06,1.05.54,1.16.94.11.37-.23,1.02-.57,1.33-.74.68-1.6,1.22-2.41,1.82-.09,0-.19-.02-.28-.03Z"/><path class="cls-4" d="m117.17,17.05c-1.06-1.16-2.12-2.32-3.16-3.49-.21-.24-.38-.52-.56-.78,1.96-.29,3.93-.44,5.85.17.4.13.99.46,1.02.73.04.48-.16,1.13-.49,1.47-.54.55-1.28.91-1.93,1.36-.25.17-.48.36-.72.54Z"/><path class="cls-4" d="m122.26,23.85c-.95-1.32-1.91-2.65-2.86-3.97,0-.11.02-.21.02-.32,1.6-.07,3.19-.44,4.8.09,1.54.51,1.75.86,1,2.23-.5.51-1.01,1.03-1.51,1.54-.18.02-.35.03-.53.05-.31.13-.62.25-.93.38Z"/><path class="cls-14" d="m125.25,129.56c.51-.61,1.01-1.22,1.52-1.83.49-.46.99-.92,1.48-1.38,1.02-1.2,2.04-2.4,3.06-3.6.2-.24.4-.48.6-.71.91-.15,1.86-.21,2.03-1.47.05-.33.48-.62,1-.91.03.28.19.62.08.82-.35.61-.7,1.28-1.22,1.72-.91.76-1.44,1.66-1.64,2.81-.04.22-.26.55-.42.57-1.15.14-1.44,1.27-2.2,1.84-.3.22-.72.28-1.05.46-.81.45-1.64.88-2.37,1.43-.19.14-.03.74-.21,1.22l-.64-.97Z"/><path class="cls-14" d="m146.28,86.25c.16-1.78.38-3.56.45-5.35.07-1.8,0-3.6-.05-5.41-.03-.86-.16-1.73-.24-2.59-.06-.61-.11-1.23-.16-1.84,1,.5,1.26,1.05,1.13,2.12-.05.38.02.81.13,1.18.83,2.81.88,5.61,0,8.42-.12.39-.1.85-.04,1.26.14.87-.41,1.92-1.22,2.2Z"/><path class="cls-4" d="m103.46,4.92c-.46-.23-.92-.47-1.39-.68-1.46-.66-2.92-1.29-4.38-1.96-.29-.13-.54-.36-.81-.54.2-.03.4-.06.6-.09,2.19.02,4.37.04,6.56.06.13.04.26.09.39.13.96.83.98,1.13.1,2.09-.32.36-.71.65-1.07.98Z"/><path class="cls-7" d="m119.42,19.56c0,.11-.02.21-.02.32-.75-.58-1.55-.12-2.32-.11-1.46,0-2.91.09-4.37.08-.25,0-.5-.36-.75-.56.22-.22.41-.56.67-.65,1.5-.49,3.01-.93,4.52-1.38.76.77,1.51,1.54,2.27,2.31Z"/><path class="cls-7" d="m111.22,10.85c.09,0,.19.02.28.03.31.36.63.72.94,1.09.21.25.42.5.63.76-1.76.38-3.53.77-5.3,1.12-.19.04-.44-.22-.66-.34.19-.25.34-.61.59-.74.99-.5,2.03-.92,3.03-1.41.2-.09.32-.33.48-.51Z"/><path class="cls-14" d="m114.18,138.35c.56-.37,1.12-.75,1.69-1.12.37.28.75.55,1.16.86-.28.83-1.22,1.07-2.05.31-.05.2-.14.36-.13.51.07.89-.43,1.53-1.26,1.73-.37.09-.68.4-1.02.59-.18.1-.39.15-.59.23.04-.23,0-.55.13-.67.47-.4.98-.76,1.5-1.09.53-.33.87-.69.58-1.35Z"/><path class="cls-14" d="m137.94,112.67c.7-1.37,1.4-2.74,2.1-4.11.82.24.86.9.94,1.65-.44-.14-.77-.25-1.27-.42.1.42.1.71.23.92.29.47.54.86-.21,1.16-.11.05-.12.42-.14.64-.02.22.02.45.03.62-.63-.17-1.16-.32-1.69-.47Z"/><path class="cls-14" d="m108,141.95c1-.56,2-1.12,3-1.69,0,.03,0,.07,0,.09.65,1.56-.46,2.08-1.54,2.61-.56.28-1.13-.12-1.46-1.02Z"/><path class="cls-14" d="m117.71,135.92c.51-.38,1.01-.76,1.52-1.14.19.35.37.7.65,1.23-.08.06-.33.24-.56.44-.24.21-.54.4-.66.66-.35.74-.69.46-1.26.03.42-.26.71-.44,1.15-.71-.32-.2-.58-.36-.85-.52Z"/><path class="cls-14" d="m119.98,134.21c.25-.25.51-.49.76-.74.32.77.78.31,1.21.14.29-.12.59-.23.94-.19-.57.56-1.14,1.13-1.9,1.88-.25-.28-.63-.69-1-1.1Z"/><path class="cls-14" d="m122.26,23.85c.31-.13.62-.25.93-.38.29.56.59,1.11.86,1.68.17.35.3.71.45,1.06-.25-.13-.51-.26-.76-.38-.5-.55-1.01-1.09-1.51-1.64.01-.11.02-.23.03-.34Z"/><path class="cls-14" d="m123.71,23.42c.5-.51,1.01-1.03,1.51-1.54.31.17.61.34,1.07.59-.83.65-1.61,1.04-2.58.95Z"/><path class="cls-14" d="m142.33,53.25c-.25-.62-.5-1.25-.74-1.87.38.03.79-.01,1.15.11.21.07.51.49.46.59-.22.42-.56.79-.86,1.17Z"/><path class="cls-14" d="m145.56,91.13c.13-.76.26-1.52.39-2.28.67.29,1.02.88.8,1.49-.13.36-.78.53-1.19.79Z"/><path class="cls-14" d="m144.93,94.31c.13-.62.26-1.25.4-1.87.35.53.7,1.07,1.05,1.6-.07.09-.14.18-.21.27h-1.24Z"/><path class="cls-14" d="m135.33,119.13c.29-.21.58-.43.97-.71-.14-.25-.33-.57-.53-.92.51.03,1.3,1.02,1.05,1.37-.25.35-.82.46-1.24.68-.08-.14-.17-.27-.25-.41Z"/><path class="cls-14" d="m144.22,97.13c.23-.89.46-1.79.69-2.68.05.49.13.98.15,1.48.01.36-.05.72-.09,1.15-.21.01-.48.03-.75.05Z"/><path class="cls-14" d="m100.8,145.27c.46-.18.91-.37,1.37-.55.1.39.21.78.38,1.42-.67-.33-1.21-.6-1.75-.86Z"/><path class="cls-14" d="m124.44,23.94l.96,1.15-.13.25c-.3-.15-.67-.23-.87-.46-.18-.21-.18-.59-.26-.89.1-.02.2-.03.3-.05Z"/><path class="cls-14" d="m140.21,108.17c.17-.38.34-.76.52-1.14.21.29.41.59.62.88-.38.09-.76.17-1.14.26Z"/><path class="cls-14" d="m107.01,143.11c.5-.1.77-.16,1.32-.27-.27.44-.42.69-.57.93-.21-.19-.43-.38-.75-.66Z"/><path class="cls-14" d="m126.61,26.53c-.32-.27-.63-.53-.95-.8.09-.07.22-.21.26-.19.35.21.69.44,1.03.67-.11.11-.22.22-.34.33Z"/><path class="cls-14" d="m142.71,102c.11-.32.22-.63.32-.95.18.21.36.41.53.62-.29.11-.57.22-.86.33Z"/><path class="cls-14" d="m126.84,20.85c.28.46.47.64.43.72-.07.15-.27.23-.42.34-.09-.14-.24-.27-.25-.41,0-.16.11-.33.24-.65Z"/><path class="cls-14" d="m143.44,99.57c.1-.26.2-.52.31-.78.14.15.28.31.42.46-.24.11-.48.21-.72.32Z"/><path class="cls-14" d="m141.92,104.06c.1-.26.21-.52.31-.78.21.18.42.36.85.72-.59.03-.87.04-1.16.05Z"/><path class="cls-14" d="m138.76,114.31c.32-.08.65-.17.97-.25.03.08.06.17.09.25-.31.12-.62.25-.94.37-.04-.12-.09-.24-.13-.36Z"/><path class="cls-14" d="m146.62,98.14c-.18.15-.35.29-.53.44-.07-.12-.21-.31-.18-.35.14-.15.33-.26.5-.39.07.1.15.2.22.3Z"/><path class="cls-14" d="m147.44,95.44c-.2.13-.35.31-.47.29-.11-.01-.18-.24-.27-.37.14-.09.28-.21.43-.24.07-.01.17.17.31.32Z"/><path class="cls-14" d="m103.12,144.21c.24-.08.49-.16.73-.25-.09.19-.19.39-.28.58-.15-.11-.3-.22-.45-.34Z"/><path class="cls-14" d="m106.43,142.83c.27-.17.55-.34.82-.51v.74c-.27-.08-.55-.15-.82-.23Z"/><path class="cls-14" d="m101.39,146.2c-.09.19-.18.37-.27.56-.08-.04-.15-.07-.23-.11.09-.19.18-.37.27-.56.08.04.15.07.23.11Z"/><path class="cls-14" d="m145.51,100.47c.07.17.16.28.13.35-.03.09-.15.18-.25.19-.05,0-.19-.16-.17-.22.02-.09.14-.17.29-.32Z"/><path class="cls-14" d="m145.84,67.32c-.04-.19-.07-.38-.11-.57.15.12.3.24.45.35-.11.07-.23.15-.34.22Z"/><path class="cls-14" d="m98.73,147.63c-.1-.15-.23-.25-.21-.31.03-.1.15-.17.23-.25.07.08.2.15.2.23,0,.09-.11.18-.23.33Z"/><path class="cls-14" d="m110.9,4.98h-.54c0-.06-.02-.11-.02-.17.18-.03.37-.06.55-.09,0,.08,0,.17.01.25Z"/><path class="cls-14" d="m132.26,32.47c-.14.13-.23.26-.29.25-.1-.02-.21-.12-.25-.21-.02-.04.11-.21.18-.22.09-.01.19.08.36.18Z"/><path class="cls-14" d="m97.49,1.65c-.2.03-.4.06-.6.09-.11-.03-.21-.05-.32-.08.3-.47.61-.46.93-.01Z"/><path class="cls-14" d="m111.86,139.83c.21-.17.42-.34.63-.51.01.45.03.9-.63.51Z"/><path class="cls-14" d="m144.16,104.63c-.12.11-.24.22-.35.32-.04-.04-.08-.08-.13-.12.1-.13.2-.25.3-.38.06.06.12.11.18.17Z"/><path class="cls-14" d="m137.3,40.11c-.08.04-.19.13-.22.11-.07-.05-.13-.15-.16-.24,0-.03.11-.09.17-.14.05.06.1.13.2.27Z"/><path class="cls-14" d="m123.58,133.09c-.07-.09-.16-.14-.16-.2,0-.07.05-.15.08-.23.07.06.17.11.21.19.02.04-.07.13-.13.24Z"/><path class="cls-14" d="m106.32,143.85c.06.11.15.2.13.24-.04.08-.13.14-.21.2-.03-.08-.09-.15-.09-.23,0-.06.08-.12.16-.21Z"/><path class="cls-14" d="m137.06,116.78c-.07-.1-.16-.19-.14-.23.04-.08.13-.14.2-.21.04.07.1.15.1.22,0,.06-.08.12-.15.22Z"/><path class="cls-14" d="m136.06,115.85c.14-.2.28-.4.41-.61-.14.2-.28.4-.41.61Z"/><path class="cls-14" d="m116.35,137.03c.15-.18.31-.35.46-.53-.15.18-.31.35-.46.53Z"/><path class="cls-14" d="m104.43,1.85c-.13-.04-.26-.09-.39-.13.13.04.26.09.39.13Z"/><path class="cls-14" d="m125.37,131.11c-.05.02-.12.07-.16.05-.04-.02-.05-.1-.07-.15.05-.02.12-.07.16-.05.04.02.05.1.07.15Z"/><path class="cls-14" d="m137.93,41.3c-.05.02-.12.07-.16.05-.04-.02-.05-.1-.07-.15.05-.02.12-.07.16-.05.04.02.05.1.07.15Z"/><path class="cls-14" d="m136.77,114.56c.1-.12.2-.24.29-.37-.1.12-.2.24-.29.37Z"/><path class="cls-14" d="m134.03,119.24c.14-.1.28-.21.41-.31-.14.1-.28.21-.41.31Z"/><path class="cls-14" d="m146.06,88.13c.01-.12.02-.25.03-.37.09.05.18.11.27.16-.1.07-.2.14-.3.22Z"/><path class="cls-14" d="m136.43,119.77c-.02.05-.03.13-.07.15-.04.01-.1-.04-.15-.06.02-.05.03-.13.07-.15.04-.01.1.04.15.06Z"/><path class="cls-14" d="m137.99,43.53c-.14-.13-.28-.26-.41-.39.14.13.28.26.41.39Z"/><path class="cls-14" d="m133.12,36.19c-.05-.06-.1-.12-.15-.18.05.06.1.12.15.18Z"/><path class="cls-14" d="m134.84,117.74c.05-.06.1-.13.16-.19-.05.06-.1.13-.16.19Z"/><path class="cls-14" d="m143.79,98.51c0-.08.02-.15.03-.23,0,.08-.02.15-.03.23Z"/><path class="cls-14" d="m143.31,99.74c.04-.06.09-.11.13-.17-.04.06-.09.11-.13.17Z"/><path class="cls-12" d="m12.02,91.32c1.25-.88,2.5-1.77,3.76-2.64.73-.51,1.48-.99,2.22-1.48.75-.36,1.53-.68,2.25-1.08,4.1-2.29,8.38-4.17,12.84-5.59,3.76-1.2,7.62-2.05,11.58-2.36,4.05-.32,8.09-.31,12.1.38,1.09.19,2.13.65,3.21.91,1.04.25,2.16.23,3.14.6,3.27,1.24,6.54,2.5,9.72,3.95,2,.91,3.86,2.15,5.76,3.27,2.67,1.57,5.38,3.07,7.97,4.77,2.56,1.67,5.21,3.08,8.14,3.94-.69.75-1.41,1.47-2.06,2.25-2.07,2.53-2.27,5.51-1.62,8.49.98,4.43,3.2,8.27,6.35,11.55,2.74,2.86,5.94,5.09,9.51,6.8-.37,2.02-1.86,3.39-2.9,5.02-.58.91-1.18,1.83-1.92,2.6-.4.42-1.11.79-1.67.77-2.79-.1-5.57-.4-8.36-.5-4.79-.18-9.36-1.4-13.84-2.94-4.85-1.66-9.37-3.99-13.67-6.8-4.59-3-8.71-6.53-12.45-10.51-3.36-3.59-6.39-7.45-9.1-11.56-2.27-3.45-5.22-6.12-8.87-8.08-3.09-1.66-6.34-2.57-9.82-2.93-2.55-.26-5.02.05-7.49.46-1.03.17-2,.68-3.02.88-.55.11-1.17-.1-1.75-.16Z"/><path class="cls-5" d="m123.38,128.64c-4.72-.41-9.45-.75-13.91-2.54-.44-.18-.89-.35-1.33-.53.01-.1.03-.21.04-.31,1.29-2.29,2.68-4.54,3.85-6.9.97-1.94,1.76-3.98,2.51-6.03.99-2.72,1.91-5.46,2.76-8.22.55-1.8,1.05-3.63,1.34-5.48.65-4.14,1.33-8.29,1.67-12.46.27-3.33.13-6.71.04-10.07-.09-3.45-.26-6.9-.57-10.33-.26-2.77-.67-5.54-1.22-8.26-.79-3.89-1.9-7.69-3.38-11.39-1.87-4.68-4.09-9.14-7.18-13.15-3.81-4.94-8.5-8.77-14.23-11.27-.89-.39-1.9-.49-2.86-.73-.28-.08-.56-.16-.84-.24-.02-.41-.04-.82-.06-1.24.81-.74,1.6-1.48,2.42-2.2,1.11-.98,2.37-1.56,3.86-1.03,1.2.43,2.42.91,3.53,1.54,5.04,2.86,9.66,6.31,13.86,10.3,3.2,3.05,6.16,6.33,8.68,9.97,1.47,2.12,2.86,4.29,4.19,6.5.96,1.6,1.77,3.29,2.64,4.93.93,2.43,1.93,4.84,2.76,7.31.69,2.06,1.19,4.19,1.77,6.29.09.32.16.65.24.98.24,1.32.48,2.64.72,3.96.05.13.1.25.15.38.13,1.1.29,2.2.39,3.3.26,2.85.6,5.7.72,8.56.09,2.26,0,4.54-.17,6.8-.23,3.05-.52,6.1-.93,9.12-.4,2.98-.9,5.95-1.5,8.9-.53,2.61-1.21,5.2-1.89,7.78-.52,1.95-1.15,3.88-1.76,5.81-.69,2.19-1.42,4.37-2.13,6.56-.32.8-.64,1.61-.96,2.41-.85,1.03-2.02.98-3.19.95Z"/><path class="cls-11" d="m106.88,125.07c-3.57-1.71-6.76-3.94-9.51-6.8-3.15-3.28-5.37-7.12-6.35-11.55-.66-2.98-.46-5.96,1.62-8.49.64-.78,1.37-1.5,2.06-2.25.69-.04,1.38-.08,2.07-.13.17.32.28.7.52.95.96,1.01,1.9,2.06,2.97,2.95,2.46,2.07,5.26,3.54,8.38,4.32.36.09.99-.09,1.19-.37.21-.29.18-.9.03-1.28-.16-.41-.57-.73-.9-1.05-2.9-2.74-5.2-5.91-6.97-9.48.07-.2.1-.44.22-.61,1.7-2.42,3.01-5.01,3.76-7.88.27.13.53.31.82.37,1.15.24,2.31.63,3.46.64,2.22.01,4.46-.13,6.67-.37.5-.05,1.2-.72,1.31-1.21.17-.76-.62-1.12-1.28-1.38-.14-.06-.3-.06-.45-.11-2.02-.65-3.96-1.47-5.64-2.81-.83-.67-1.65-1.36-2.48-2.03,0-.12-.03-.25,0-.37.32-1.78.66-3.56.98-5.34.26-1.42.5-2.84.74-4.26,2.57.07,5.15.18,7.62-.74.27.23.69.4.79.69.26.68.47,1.42.52,2.14.13,1.8.01,3.62.27,5.4.4,2.74.33,5.42-.22,8.13-.19.95-.09,1.96-.06,2.94.04,1.21.32,2.44.17,3.62-.29,2.23-.84,4.42-1.25,6.64-.24,1.3-.38,2.62-.6,3.93-.08.48-.25.95-.35,1.43-.29,1.35-.49,2.71-.86,4.04-.37,1.33-.88,2.63-1.35,3.93-.7,1.95-1.38,3.9-2.15,5.82-.44,1.08-1.07,2.08-1.56,3.15-.38.81-.61,1.69-1.01,2.49-.36.74-.88,1.4-1.29,2.11-.53.93-1.03,1.87-1.54,2.81-.12,0-.25,0-.37.01Z"/><path class="cls-10" d="m107.25,125.06c.51-.94,1-1.88,1.54-2.81.41-.72.93-1.38,1.29-2.11.4-.8.63-1.68,1.01-2.49.49-1.06,1.12-2.06,1.56-3.15.77-1.92,1.45-3.88,2.15-5.82.47-1.3.98-2.6,1.35-3.93.37-1.32.57-2.69.86-4.04.1-.48.27-.95.35-1.43.21-1.31.36-2.62.6-3.93.4-2.22.95-4.41,1.25-6.64.15-1.18-.13-2.41-.17-3.62-.03-.98-.14-2,.06-2.94.55-2.71.62-5.39.22-8.13-.26-1.77-.14-3.6-.27-5.4-.05-.73-.27-1.46-.52-2.14-.11-.29-.52-.46-.79-.69.71-.61.75-1.29.2-2.03.07-.33.21-.66.18-.99-.11-1.57-.19-3.14-.43-4.7-.18-1.21-.55-2.39-.87-3.58-.23-.85-.49-1.68-.79-2.51-.07-.18-.34-.29-.52-.44,0-.37-.02-.73-.02-1.1-.08-.55-.06-1.14-.26-1.64-.91-2.24-1.85-4.47-2.86-6.66-.29-.63-.9-1.11-1.36-1.66-.07-.24-.13-.48-.2-.73-.76-1.43-1.34-3-2.33-4.25-1.73-2.18-3.62-4.25-5.63-6.18-.86-.83-2.17-1.2-3.28-1.78-.63-.54-1.25-1.1-1.91-1.61-1.54-1.19-3.09-2.35-4.65-3.51-.68-.51-1.4-.97-2.1-1.46.96.24,1.97.34,2.86.73,5.73,2.5,10.42,6.33,14.23,11.27,3.09,4.01,5.31,8.47,7.18,13.15,1.48,3.7,2.59,7.5,3.38,11.39.55,2.73.97,5.49,1.22,8.26.32,3.43.48,6.88.57,10.33.09,3.35.23,6.73-.04,10.07-.34,4.17-1.02,8.32-1.67,12.46-.29,1.85-.79,3.68-1.34,5.48-.85,2.76-1.77,5.51-2.76,8.22-.74,2.04-1.54,4.08-2.51,6.03-1.17,2.35-2.56,4.6-3.85,6.9-.31-.07-.62-.13-.93-.2Z"/><path class="cls-12" d="m72.76,149.81c-.25,0-.51,0-.76,0,0-.06,0-.13,0-.19.26.06.51.13.77.19Z"/><path class="cls-11" d="m84.04,149.29c-.07.02-.14.04-.21.05.07-.02.14-.04.21-.05Z"/><path class="cls-8" d="m90.91,20.98c.7.48,1.42.95,2.1,1.46,1.56,1.16,3.11,2.32,4.65,3.51.66.51,1.27,1.07,1.91,1.61.3.39.56.82.9,1.17,2.02,2.03,3.63,4.36,5.05,6.82.53.93.93,1.93,1.39,2.9.44,1.05.88,2.11,1.31,3.16.5,2.2,1,4.39,1.5,6.59.19,1.55.38,3.1.56,4.65.06,2.7.12,5.4.18,8.1-.12,1.86-.24,3.72-.36,5.58-.25,1.42-.49,2.84-.74,4.26-.32,1.78-.66,3.56-.98,5.34-.02.12,0,.25,0,.37-.19.55-.37,1.1-.56,1.65-.62,1.76-1.24,3.51-1.86,5.27-.75,2.87-2.06,5.47-3.76,7.88-.12.17-.15.4-.22.61-.17.17-.38.31-.51.51-1.12,1.77-2.67,2.95-4.72,3.44-.69.04-1.38.08-2.07.13-2.93-.87-5.58-2.27-8.14-3.94-2.59-1.69-5.3-3.2-7.97-4.77-1.9-1.12-3.76-2.36-5.76-3.27-3.18-1.45-6.45-2.71-9.72-3.95-.98-.37-2.1-.36-3.14-.6-1.08-.26-2.12-.72-3.21-.91-4.01-.69-8.05-.7-12.1-.38-3.96.31-7.81,1.16-11.58,2.36-4.46,1.42-8.75,3.3-12.84,5.59-.73.41-1.5.72-2.25,1.08-.33-1.53-.73-3.06-.98-4.61-.25-1.49-.38-3.01-.51-4.52-.1-1.14-.21-2.3-.18-3.44.07-2.17.23-4.34.36-6.51.04-.66.1-1.33.19-1.99.05-.32.25-.62.3-.94.06-.35.04-.72.06-1.08,2.43-1.72,5.09-2.99,7.84-4.11.4-.16.78-.38,1.17-.57,2.63-.87,5.21-1.92,7.89-2.58,3.25-.8,6.56-1.35,9.87-1.88,2.08-.33,4.2-.58,6.3-.57,5.01.02,10.02.22,15.04.33,1.06.02,1.77-.47,1.86-1.31.1-.94-.49-1.42-1.29-1.68-2.39-.78-4.78-1.61-7.2-2.31-2.33-.67-4.68-1.31-7.05-1.78-3.13-.63-6.29-1.13-9.45-1.6-2.05-.31-4.13-.48-6.2-.67-1.18-.11-2.36-.2-3.54-.21-2.58-.02-5.16.02-7.73.03-.19-.01-.38-.02-.56-.03-.04-1.24.88-2.03,1.45-2.94,1.91-3.03,4.06-5.89,6.65-8.39,2.34-2.26,4.66-4.57,7.21-6.58,2.28-1.8,4.79-3.35,7.33-4.78,4.37-2.46,9.01-4.3,13.9-5.48.99-.24,2.01-.33,3.02-.49-.55,2.85,1.04,4.74,3.02,6.33.89.71,2.09,1.02,3.14,1.55.24.12.41.37.61.56-1.21.95-1.34,1.31-.86,2.41.39.89,1.19,1.34,2.13,1.11,1.68-.42,3.35-.88,5.02-1.33,2.2-.6,4.39-1.22,6.58-1.82,1.25-.34,2.52-.64,3.76-1.01,1.76-.52,2.47-1.93,2.91-3.54.28.08.56.16.84.24Z"/><path class="cls-10" d="m127.53,125.27c.71-2.19,1.44-4.37,2.13-6.56.61-1.93,1.24-3.86,1.76-5.81.69-2.58,1.37-5.17,1.89-7.78.6-2.95,1.1-5.92,1.5-8.9.41-3.03.71-6.08.93-9.12.17-2.26.26-4.54.17-6.8-.12-2.86-.45-5.71-.72-8.56-.1-1.1-.26-2.2-.39-3.3-.05-.13-.1-.25-.15-.38-.24-1.32-.48-2.64-.72-3.96.51-1.29,1.74-1.02,2.73-1.29.13,1,.26,2,.39,3-.58.43-.51.74.17.94.13.88.29,1.76.38,2.65.21,2.13.41,4.25.57,6.38.06.83.02,1.67,0,2.51-.06,2.61-.11,5.23-.19,7.84-.09,3.27-.35,6.53-.93,9.75-.6,3.35-1.2,6.7-1.9,10.03-.4,1.91-.89,3.81-1.53,5.65-1.13,3.22-2.39,6.39-3.63,9.56-.35.89-.8,1.74-1.2,2.61-.05.07-.1.13-.15.2-.01.11-.03.23-.04.34-.36.33-.72.66-1.08.99Z"/><path class="cls-12" d="m90.06,20.75c-.45,1.61-1.16,3.02-2.91,3.54-1.24.37-2.51.66-3.76,1.01-2.2.6-4.39,1.22-6.58,1.82-1.67.46-3.34.92-5.02,1.33-.94.23-1.74-.22-2.13-1.11-.48-1.1-.36-1.46.86-2.41,4.5-1.05,8.81-2.49,12.18-5.89.5-.51,1.05-.99,1.64-1.38,1.54-1.03,3.32-.76,4.75.63.2.2.49.3.73.45.06.25.13.51.19.76.02.41.04.82.06,1.24Z"/><path class="cls-10" d="m90,19.51c-.06-.25-.13-.51-.19-.76,1.16-1.32,2.38-2.58,3.98-3.38.85-.42,1.72-.57,2.67-.09,1.8.92,3.76,1.56,5.44,2.65,2.71,1.75,5.28,3.71,7.84,5.68,1.98,1.52,3.97,3.07,5.73,4.83,1.93,1.94,3.63,4.13,5.38,6.25,1.19,1.43,2.34,2.89,3.42,4.4.84,1.17,1.53,2.44,2.29,3.66.45.73.96,1.44,1.34,2.22.59,1.22,1.11,2.47,1.59,3.74.08.2-.2.54-.32.82-.87-1.65-1.68-3.34-2.64-4.93-1.33-2.21-2.72-4.38-4.19-6.5-2.52-3.64-5.48-6.92-8.68-9.97-4.2-4-8.82-7.44-13.86-10.3-1.11-.63-2.32-1.1-3.53-1.54-1.48-.53-2.75.04-3.86,1.03-.82.72-1.61,1.47-2.42,2.2Z"/><path class="cls-7" d="m122.23,24.19c.5.55,1.01,1.09,1.51,1.64.07.39.14.78.22,1.17-.49.07-.98.21-1.46.18-1.8-.09-3.59-.23-5.38-.38-.35-.03-.68-.24-1.3-.47.53-.38.82-.72,1.18-.82,1.73-.47,3.48-.88,5.22-1.31Z"/><path class="cls-4" d="m84.59,3.36c.92-.18,1.53.4,1.86,1.23.16.41.2,1.12-.04,1.38-.24.25-.97.27-1.36.1-.54-.24-.87-.23-1.34.11-.67.48-1.37.08-1.44-.76-.1-1.14.89-2.06,2.33-2.06Z"/><path class="cls-1" d="m90.75.53c.31.06.62.12.94.18-.31-.06-.62-.12-.94-.18Z"/><path class="cls-5" d="m92.8.76c.07.03.13.06.2.08-.07-.03-.13-.06-.2-.08Z"/><path class="cls-12" d="m24.74,45.19c2.58-.01,5.16-.05,7.73-.03,1.18,0,2.36.1,3.54.21,2.07.2,4.15.37,6.2.67,3.16.47,6.32.97,9.45,1.6,2.37.48,4.72,1.11,7.05,1.78,2.42.7,4.8,1.52,7.2,2.31.8.26,1.4.74,1.29,1.68-.09.84-.8,1.34-1.86,1.31-5.01-.11-10.02-.31-15.04-.33-2.1,0-4.22.24-6.3.57-3.31.52-6.62,1.07-9.87,1.88-2.68.66-5.26,1.7-7.89,2.58-.24-.24-.56-.73-.7-.69-1.23.41-2.07-.36-2.87-.97-3.32-2.52-3.84-7.23-1.1-10.39.61-.7,1.63-1.04,2.45-1.58.26-.17.48-.42.72-.63Z"/><path class="cls-8" d="m127.53,125.27c.36-.33.72-.66,1.08-.99-.12.69-.24,1.38-.36,2.07-.49.46-.99.92-1.48,1.38-.07-.02-.13-.03-.2-.05.32-.8.64-1.61.96-2.41Z"/><path class="cls-11" d="m137.23,66.75c-.68-.2-.75-.51-.17-.94.06.31.11.62.17.94Z"/><path class="cls-8" d="m128.65,123.94c.05-.07.1-.13.15-.2-.05.07-.1.13-.15.2Z"/><path class="cls-11" d="m134.65,68.06c.05.13.1.25.15.38-.05-.13-.1-.25-.15-.38Z"/><path class="cls-7" d="m96.76,95.86c2.05-.49,3.59-1.67,4.72-3.44.13-.2.34-.34.51-.51,1.77,3.57,4.07,6.74,6.97,9.48.34.32.74.64.9,1.05.15.38.18.99-.03,1.28-.2.28-.83.46-1.19.37-3.12-.79-5.92-2.26-8.38-4.32-1.07-.89-2.01-1.94-2.97-2.95-.24-.25-.35-.63-.52-.95Z"/><path class="cls-7" d="m105.97,83.42c.62-1.76,1.24-3.51,1.86-5.27.19-.55.37-1.1.56-1.65.83.68,1.64,1.37,2.48,2.03,1.68,1.34,3.62,2.16,5.64,2.81.15.05.31.05.45.11.65.26,1.44.62,1.28,1.38-.11.49-.81,1.16-1.31,1.21-2.21.24-4.44.38-6.67.37-1.16,0-2.31-.39-3.46-.64-.29-.06-.55-.24-.82-.37Z"/><path class="cls-7" d="m110.1,66.54c.12-1.86.24-3.72.36-5.58.7.37,1.36.82,2.1,1.08,1.77.63,3.57,1.16,5.36,1.73.54.74.51,1.42-.2,2.03-2.47.92-5.05.81-7.62.74Z"/><path class="cls-11" d="m117.93,63.77c-1.79-.57-3.59-1.1-5.36-1.73-.73-.26-1.4-.72-2.1-1.08-.06-2.7-.12-5.4-.18-8.1.55,0,1.12.09,1.65,0,1.25-.24,2.64-.15,3.57-1.29.18.14.45.25.52.44.3.82.56,1.66.79,2.51.32,1.19.69,2.37.87,3.58.23,1.55.32,3.13.43,4.7.02.32-.12.66-.18.99Z"/><path class="cls-11" d="m109.72,48.21c-.5-2.2-1-4.39-1.5-6.59,1.08.02,2.15-.01,2.78-1.12.46.55,1.06,1.03,1.36,1.66,1.02,2.19,1.95,4.42,2.86,6.66.2.5.18,1.09.26,1.64-1.83-.76-3.66-1.52-5.49-2.27-.08-.03-.18,0-.28.01Z"/><path class="cls-11" d="m106.9,38.46c-.46-.97-.85-1.98-1.39-2.9-1.42-2.47-3.03-4.79-5.05-6.82-.34-.35-.6-.78-.9-1.17,1.11.58,2.42.95,3.28,1.78,2,1.93,3.9,4,5.63,6.18.99,1.25,1.57,2.82,2.33,4.25-1.3-.44-2.6-.88-3.9-1.32Z"/><path class="cls-7" d="m109.72,48.21c.09,0,.2-.04.28-.01,1.83.75,3.66,1.51,5.49,2.27,0,.37.02.73.02,1.1-.93,1.14-2.32,1.05-3.57,1.29-.53.1-1.1.01-1.65,0-.19-1.55-.38-3.1-.56-4.65Z"/><path class="cls-7" d="m106.9,38.46c1.3.44,2.6.88,3.9,1.32.07.24.13.49.2.73-.63,1.11-1.7,1.14-2.78,1.12-.44-1.05-.88-2.11-1.31-3.16Z"/></svg>